<?xml version="1.0" encoding="UTF-8" standalone="no"?>
<svg
   xmlns:dc="http://purl.org/dc/elements/1.1/"
   xmlns:cc="http://creativecommons.org/ns#"
   xmlns:rdf="http://www.w3.org/1999/02/22-rdf-syntax-ns#"
   xmlns:svg="http://www.w3.org/2000/svg"
   xmlns="http://www.w3.org/2000/svg"
   xmlns:sodipodi="http://sodipodi.sourceforge.net/DTD/sodipodi-0.dtd"
   xmlns:inkscape="http://www.inkscape.org/namespaces/inkscape"
   contentScriptType="text/ecmascript"
   width="841px"
   zoomAndPan="magnify"
   contentStyleType="text/css"
   viewBox="-1858 -1865 3794 3791"
   height="841px"
   preserveAspectRatio="xMidYMid meet"
   version="1.1"
   id="svg2"
   inkscape:version="0.48.3.1 r9886"
   sodipodi:docname="44960_textrank_graph.svg">
  <metadata
     id="metadata100">
    <rdf:RDF>
      <cc:Work
         rdf:about="">
        <dc:format>image/svg+xml</dc:format>
        <dc:type
           rdf:resource="http://purl.org/dc/dcmitype/StillImage" />
        <dc:title />
      </cc:Work>
    </rdf:RDF>
  </metadata>
  <defs
     id="defs98" />
  <sodipodi:namedview
     pagecolor="#ffffff"
     bordercolor="#666666"
     borderopacity="1"
     objecttolerance="10"
     gridtolerance="10"
     guidetolerance="10"
     inkscape:pageopacity="0"
     inkscape:pageshadow="2"
     inkscape:window-width="1855"
     inkscape:window-height="1056"
     id="namedview96"
     showgrid="false"
     inkscape:zoom="0.70710678"
     inkscape:cx="183.22919"
     inkscape:cy="327.65546"
     inkscape:window-x="65"
     inkscape:window-y="24"
     inkscape:window-maximized="1"
     inkscape:current-layer="svg2" />
  <g
     id="nodes"
     transform="translate(-74.520313,0.34405518)">
    <circle
       r="10"
       cx="-772.0083"
       class="août"
       cy="-314.9245"
       id="circle26"
       sodipodi:cx="-772.0083"
       sodipodi:cy="-314.9245"
       sodipodi:rx="10"
       sodipodi:ry="10"
       style="fill:#999999;fill-opacity:1;stroke:#000000;stroke-width:1;stroke-opacity:1"
       d="m -762.0083,-314.9245 c 0,5.52285 -4.47715,10 -10,10 -5.52285,0 -10,-4.47715 -10,-10 0,-5.52285 4.47715,-10 10,-10 5.52285,0 10,4.47715 10,10 z"
       transform="matrix(-1,0,0,1,-2471.225,0)" />
    <circle
       r="10"
       cx="-1699.2167"
       class="2003"
       cy="-972.30286"
       id="circle28"
       sodipodi:cx="-1699.2167"
       sodipodi:cy="-972.30286"
       sodipodi:rx="10"
       sodipodi:ry="10"
       style="fill:#999999;fill-opacity:1;stroke:#000000;stroke-width:1;stroke-opacity:1"
       d="m -1689.2167,-972.30286 c 0,5.52285 -4.4771,10 -10,10 -5.5228,0 -10,-4.47715 -10,-10 0,-5.52284 4.4772,-10 10,-10 5.5229,0 10,4.47716 10,10 z"
       transform="matrix(-1,0,0,1,-2471.225,0)" />
    <circle
       r="10"
       cx="-1248.712"
       class="2012"
       cy="1480.925"
       id="circle30"
       sodipodi:cx="-1248.712"
       sodipodi:cy="1480.925"
       sodipodi:rx="10"
       sodipodi:ry="10"
       style="fill:#999999;fill-opacity:1;stroke:#000000;stroke-width:1;stroke-opacity:1"
       d="m -1238.712,1480.925 c 0,5.5229 -4.4772,10 -10,10 -5.5229,0 -10,-4.4771 -10,-10 0,-5.5228 4.4771,-10 10,-10 5.5228,0 10,4.4772 10,10 z"
       transform="matrix(-1,0,0,1,-2471.225,0)" />
    <circle
       r="10"
       cx="324.61597"
       class="alerte"
       cy="-760.26709"
       id="circle32"
       sodipodi:cx="324.61597"
       sodipodi:cy="-760.26709"
       sodipodi:rx="10"
       sodipodi:ry="10"
       style="fill:#999999;fill-opacity:1;stroke:#000000;stroke-width:1;stroke-opacity:1"
       d="m 334.61597,-760.26709 c 0,5.52285 -4.47716,10 -10,10 -5.52285,0 -10,-4.47715 -10,-10 0,-5.52285 4.47715,-10 10,-10 5.52284,0 10,4.47715 10,10 z" />
    <circle
       r="10"
       cx="-320.0798"
       class="jaune"
       cy="776.7171"
       id="circle34"
       sodipodi:cx="-320.0798"
       sodipodi:cy="776.7171"
       sodipodi:rx="10"
       sodipodi:ry="10"
       style="fill:#999999;fill-opacity:1;stroke:#000000;stroke-width:1;stroke-opacity:1"
       d="m -310.0798,776.7171 c 0,5.52285 -4.47716,10 -10,10 -5.52285,0 -10,-4.47715 -10,-10 0,-5.52285 4.47715,-10 10,-10 5.52284,0 10,4.47715 10,10 z" />
    <circle
       r="10"
       cx="1926.2573"
       class="orange"
       cy="271.5256"
       id="circle36"
       sodipodi:cx="1926.2573"
       sodipodi:cy="271.5256"
       sodipodi:rx="10"
       sodipodi:ry="10"
       style="fill:#999999;fill-opacity:1;stroke:#000000;stroke-width:1;stroke-opacity:1"
       d="m 1936.2573,271.5256 c 0,5.52285 -4.4771,10 -10,10 -5.5228,0 -10,-4.47715 -10,-10 0,-5.52284 4.4772,-10 10,-10 5.5229,0 10,4.47716 10,10 z" />
    <circle
       r="10"
       cx="773.92865"
       class="rouge"
       cy="333.34442"
       id="circle38"
       sodipodi:cx="773.92865"
       sodipodi:cy="333.34442"
       sodipodi:rx="10"
       sodipodi:ry="10"
       style="fill:#999999;fill-opacity:1;stroke:#000000;stroke-width:1;stroke-opacity:1"
       d="m 783.92865,333.34442 c 0,5.52285 -4.47715,10 -10,10 -5.52285,0 -10,-4.47715 -10,-10 0,-5.52285 4.47715,-10 10,-10 5.52285,0 10,4.47715 10,10 z" />
    <circle
       r="10"
       cx="56.391884"
       class="brise"
       cy="1915.715"
       id="circle40"
       sodipodi:cx="56.391884"
       sodipodi:cy="1915.715"
       sodipodi:rx="10"
       sodipodi:ry="10"
       style="fill:#999999;fill-opacity:1;stroke:#000000;stroke-width:1;stroke-opacity:1"
       d="m 66.391884,1915.715 c 0,5.5228 -4.477153,10 -10,10 -5.522848,0 -10,-4.4772 -10,-10 0,-5.5229 4.477152,-10 10,-10 5.522847,0 10,4.4771 10,10 z" />
    <circle
       r="10"
       cx="1232.4628"
       class="légère"
       cy="1458.2863"
       id="circle42"
       sodipodi:cx="1232.4628"
       sodipodi:cy="1458.2863"
       sodipodi:rx="10"
       sodipodi:ry="10"
       style="fill:#999999;fill-opacity:1;stroke:#000000;stroke-width:1;stroke-opacity:1"
       d="m 1242.4628,1458.2863 c 0,5.5228 -4.4772,10 -10,10 -5.5229,0 -10,-4.4772 -10,-10 0,-5.5229 4.4771,-10 10,-10 5.5228,0 10,4.4771 10,10 z" />
    <circle
       r="10"
       cx="-665.65289"
       class="deuxième"
       cy="-1743.6167"
       id="circle44"
       sodipodi:cx="-665.65289"
       sodipodi:cy="-1743.6167"
       sodipodi:rx="10"
       sodipodi:ry="10"
       style="fill:#999999;fill-opacity:1;stroke:#000000;stroke-width:1;stroke-opacity:1"
       d="m -655.65289,-1743.6167 c 0,5.5228 -4.47716,10 -10,10 -5.52285,0 -10,-4.4772 -10,-10 0,-5.5228 4.47715,-10 10,-10 5.52284,0 10,4.4772 10,10 z" />
    <circle
       r="10"
       cx="627.82965"
       class="nuit"
       cy="-1855.4031"
       id="circle46"
       sodipodi:cx="627.82965"
       sodipodi:cy="-1855.4031"
       sodipodi:rx="10"
       sodipodi:ry="10"
       style="fill:#999999;fill-opacity:1;stroke:#000000;stroke-width:1;stroke-opacity:1"
       d="m 637.82965,-1855.4031 c 0,5.5229 -4.47715,10 -10,10 -5.52285,0 -10,-4.4771 -10,-10 0,-5.5228 4.47715,-10 10,-10 5.52285,0 10,4.4772 10,10 z" />
    <circle
       r="10"
       cx="1613.5264"
       class="vigilance"
       cy="-959.03564"
       id="circle48"
       sodipodi:cx="1613.5264"
       sodipodi:cy="-959.03564"
       sodipodi:rx="10"
       sodipodi:ry="10"
       style="fill:#999999;fill-opacity:1;stroke:#000000;stroke-width:1;stroke-opacity:1"
       d="m 1623.5264,-959.03564 c 0,5.52284 -4.4772,10 -10,10 -5.5229,0 -10,-4.47716 -10,-10 0,-5.52285 4.4771,-10 10,-10 5.5228,0 10,4.47715 10,10 z" />
  </g>
  <g
     id="edges"
     transform="translate(-74.5203,0.34405)">
    <path
       d="M -772.00827,-972.30286 -1699.2167,-314.9245"
       class="2003 août"
       id="path7"
       inkscape:connector-curvature="0"
       style="fill:none;stroke:#999999;stroke-width:1;stroke-opacity:1" />
    <path
       d="M -1222.513,1480.925 -1699.2167,-314.9245"
       class="2012 août"
       id="path9"
       inkscape:connector-curvature="0"
       style="fill:none;stroke:#999999;stroke-width:1;stroke-opacity:1" />
    <path
       d="M 324.61597,-760.26709 -320.0798,776.7171"
       class="alerte jaune"
       id="path11"
       inkscape:connector-curvature="0"
       style="fill:none;stroke:#999999;stroke-width:1;stroke-opacity:1" />
    <path
       d="M 324.61597,-760.26709 1926.2573,271.5256"
       class="alerte orange"
       id="path13"
       inkscape:connector-curvature="0"
       style="fill:none;stroke:#999999;stroke-width:1;stroke-opacity:1" />
    <path
       d="M 324.61597,-760.26709 773.92865,333.34442"
       class="alerte rouge"
       id="path15"
       inkscape:connector-curvature="0"
       style="fill:none;stroke:#999999;stroke-width:1;stroke-opacity:1" />
    <path
       d="M 1926.2573,271.5256 1613.5264,-959.03565"
       class="orange vigilance"
       id="path17"
       inkscape:connector-curvature="0"
       style="fill:none;stroke:#999999;stroke-width:1;stroke-opacity:1" />
    <path
       d="M 56.391884,1915.715 1232.4628,1458.2863"
       class="brise légère"
       id="path19"
       inkscape:connector-curvature="0"
       style="fill:none;stroke:#999999;stroke-width:1;stroke-opacity:1" />
    <path
       d="M -665.65289,-1743.6167 627.82965,-1855.4031"
       class="deuxième nuit"
       id="path21"
       inkscape:connector-curvature="0"
       style="fill:none;stroke:#999999;stroke-width:1;stroke-opacity:1" />
  </g>
  <g
     id="node-labels"
     transform="translate(-149.96954,24.211243)" />
  <g
     id="g3045"
     transform="translate(-31.363115,48.020674)" />
</svg>
