<?xml version="1.0" encoding="UTF-8" standalone="no"?>
<!-- Created with Inkscape (http://www.inkscape.org/) -->

<svg
   xmlns:osb="http://www.openswatchbook.org/uri/2009/osb"
   xmlns:dc="http://purl.org/dc/elements/1.1/"
   xmlns:cc="http://creativecommons.org/ns#"
   xmlns:rdf="http://www.w3.org/1999/02/22-rdf-syntax-ns#"
   xmlns:svg="http://www.w3.org/2000/svg"
   xmlns="http://www.w3.org/2000/svg"
   xmlns:xlink="http://www.w3.org/1999/xlink"
   xmlns:sodipodi="http://sodipodi.sourceforge.net/DTD/sodipodi-0.dtd"
   xmlns:inkscape="http://www.inkscape.org/namespaces/inkscape"
   width="210mm"
   height="297mm"
   id="svg2"
   version="1.1"
   inkscape:version="0.48.3.1 r9886"
   sodipodi:docname="processing_steps.eps"
   inkscape:export-filename="/Users/adrienbougouin/Desktop/svn_taln/keyphrases_extraction/ijcnlp_2013/include/processing_steps.png"
   inkscape:export-xdpi="90"
   inkscape:export-ydpi="90">
  <defs
     id="defs4">
    <marker
       inkscape:stockid="Arrow1Mstart"
       orient="auto"
       refY="0.0"
       refX="0.0"
       id="Arrow1Mstart"
       style="overflow:visible">
      <path
         id="path3879"
         d="M 0.0,0.0 L 5.0,-5.0 L -12.5,0.0 L 5.0,5.0 L 0.0,0.0 z "
         style="fill-rule:evenodd;stroke:#000000;stroke-width:1.0pt;marker-start:none"
         transform="scale(0.4) translate(10,0)" />
    </marker>
    <marker
       inkscape:stockid="Arrow1Lend"
       orient="auto"
       refY="0.0"
       refX="0.0"
       id="Arrow1Lend"
       style="overflow:visible;">
      <path
         id="path3876"
         d="M 0.0,0.0 L 5.0,-5.0 L -12.5,0.0 L 5.0,5.0 L 0.0,0.0 z "
         style="fill-rule:evenodd;stroke:#000000;stroke-width:1.0pt;marker-start:none;"
         transform="scale(0.8) rotate(180) translate(12.5,0)" />
    </marker>
    <linearGradient
       id="linearGradient6514"
       osb:paint="solid">
      <stop
         style="stop-color:#000000;stop-opacity:1;"
         offset="0"
         id="stop6516" />
    </linearGradient>
    <linearGradient
       id="linearGradient6496"
       osb:paint="solid">
      <stop
         style="stop-color:#000000;stop-opacity:1;"
         offset="0"
         id="stop6498" />
    </linearGradient>
    <marker
       inkscape:stockid="Arrow1Mend"
       orient="auto"
       refY="0.0"
       refX="0.0"
       id="Arrow1Mend"
       style="overflow:visible;">
      <path
         id="path3882"
         d="M 0.0,0.0 L 5.0,-5.0 L -12.5,0.0 L 5.0,5.0 L 0.0,0.0 z "
         style="fill-rule:evenodd;stroke:#000000;stroke-width:1.0pt;marker-start:none;"
         transform="scale(0.4) rotate(180) translate(10,0)" />
    </marker>
    <marker
       inkscape:stockid="Arrow2Send"
       orient="auto"
       refY="0.0"
       refX="0.0"
       id="Arrow2Send"
       style="overflow:visible;">
      <path
         id="path3906"
         style="font-size:12.0;fill-rule:evenodd;stroke-width:0.62500000;stroke-linejoin:round;"
         d="M 8.7185878,4.0337352 L -2.2072895,0.016013256 L 8.7185884,-4.0017078 C 6.9730900,-1.6296469 6.9831476,1.6157441 8.7185878,4.0337352 z "
         transform="scale(0.3) rotate(180) translate(-2.3,0)" />
    </marker>
    <linearGradient
       xlink:href="#linearGradient841"
       id="linearGradient1944" />
    <radialGradient
       xlink:href="#linearGradient841"
       r="0.54606670"
       id="radialGradient856"
       fy="3.5200000"
       fx="0.54117650"
       cy="0.89285713"
       cx="0.50000000" />
    <linearGradient
       y2="0.79687500"
       y1="-0.56250000"
       xlink:href="#linearGradient1507"
       x2="0.62222224"
       x1="0.31111112"
       id="linearGradient1556" />
    <linearGradient
       y2="383.7653"
       y1="843.20789"
       xlink:href="#linearGradient1507"
       x2="547.80806"
       x1="201.38964"
       id="linearGradient1506"
       gradientTransform="scale(0.94468882,1.0585496)"
       gradientUnits="userSpaceOnUse" />
    <linearGradient
       y2="418.53634"
       y1="236.12772"
       xlink:href="#linearGradient1501"
       x2="330.88033"
       x1="687.96373"
       id="linearGradient1499"
       gradientTransform="scale(0.98900911,1.011113)"
       gradientUnits="userSpaceOnUse" />
    <linearGradient
       y2="287.73826"
       y1="169.44361"
       xlink:href="#linearGradient1492"
       x2="622.33327"
       x1="741.63899"
       id="linearGradient1497"
       gradientTransform="scale(0.9552926,1.0467997)"
       gradientUnits="userSpaceOnUse" />
    <linearGradient
       y2="689.86002"
       y1="230.07422"
       xlink:href="#linearGradient1492"
       x2="351.7063"
       x1="728.96644"
       id="linearGradient1495"
       gradientTransform="scale(0.95542499,1.0466546)"
       gradientUnits="userSpaceOnUse" />
    <linearGradient
       id="linearGradient1492">
      <stop
         style="stop-color:#dadada;stop-opacity:1.0000000;"
         offset="0.0000000"
         id="stop1493" />
      <stop
         style="stop-color:#f1f1f1;stop-opacity:1.0000000;"
         offset="0.34923077"
         id="stop1496" />
      <stop
         style="stop-color:#f0f0f0;stop-opacity:1.0000000;"
         offset="1.0000000"
         id="stop1494" />
    </linearGradient>
    <linearGradient
       id="linearGradient1501">
      <stop
         style="stop-color:#ffffff;stop-opacity:1.0000000;"
         offset="0.0000000"
         id="stop1502" />
      <stop
         style="stop-color:#ffffff;stop-opacity:0.0000000;"
         offset="1.0000000"
         id="stop1504" />
    </linearGradient>
    <linearGradient
       id="linearGradient1507">
      <stop
         style="stop-color:#000000;stop-opacity:0.095505618;"
         offset="0.0000000"
         id="stop1508" />
      <stop
         style="stop-color:#000000;stop-opacity:0.0000000;"
         offset="1.0000000"
         id="stop1510" />
    </linearGradient>
    <radialGradient
       xlink:href="#linearGradient853"
       r="0.50000000"
       id="radialGradient861"
       fy="0.29885057"
       fx="0.50704223"
       cy="0.50000000"
       cx="0.50000000" />
    <linearGradient
       id="linearGradient853">
      <stop
         style="stop-color:#000000;stop-opacity:0.29752067;"
         offset="0.00000000"
         id="stop854" />
      <stop
         style="stop-color:#000000;stop-opacity:0.00000000;"
         offset="1.0000000"
         id="stop855" />
    </linearGradient>
    <linearGradient
       y2="1.2905406"
       y1="-1.1486486"
       xlink:href="#linearGradient853"
       x2="0.26408452"
       x1="1.4647887"
       id="linearGradient859" />
    <linearGradient
       xlink:href="#linearGradient846"
       id="linearGradient850" />
    <linearGradient
       id="linearGradient846">
      <stop
         style="stop-color:#e7e7e7;stop-opacity:1.0000000;"
         offset="0.00000000"
         id="stop847" />
      <stop
         style="stop-color:#a5a5a5;stop-opacity:1.0000000;"
         offset="1.0000000"
         id="stop848" />
    </linearGradient>
    <linearGradient
       y2="0.049019609"
       y1="1.2647059"
       xlink:href="#linearGradient846"
       x2="0.57142860"
       x1="0.64285713"
       id="linearGradient858" />
    <linearGradient
       y2="0.35555556"
       y1="0.32222223"
       xlink:href="#linearGradient846"
       x2="0.80985916"
       x1="0.39788732"
       id="linearGradient851" />
    <linearGradient
       y2="-0.74324322"
       y1="0.81081080"
       xlink:href="#linearGradient1290"
       x2="0.50000000"
       x1="0.47535211"
       id="linearGradient860" />
    <linearGradient
       id="linearGradient1290">
      <stop
         style="stop-color:#b2a269;stop-opacity:1.0000000;"
         offset="0.0000000"
         id="stop1291" />
      <stop
         style="stop-color:#6d5b18;stop-opacity:1.0000000;"
         offset="1.0000000"
         id="stop1292" />
    </linearGradient>
    <linearGradient
       id="linearGradient841">
      <stop
         style="stop-color:#ffffff;stop-opacity:1.0000000;"
         offset="0.00000000"
         id="stop842" />
      <stop
         style="stop-color:#ffffff;stop-opacity:0.00000000;"
         offset="1.0000000"
         id="stop843" />
    </linearGradient>
    <radialGradient
       xlink:href="#linearGradient853"
       r="0.50000000"
       id="radialGradient864"
       fy="0.14942528"
       fx="0.50000000"
       cy="0.50000000"
       cx="0.50000000" />
    <linearGradient
       y2="0.46354166"
       y1="0.43229166"
       xlink:href="#linearGradient846"
       x2="1.2288733"
       x1="0.010563380"
       id="linearGradient849" />
    <linearGradient
       y2="0.46568626"
       y1="0.38235295"
       xlink:href="#linearGradient853"
       x2="0.59469700"
       x1="-0.22348484"
       id="linearGradient840" />
    <linearGradient
       y2="0.50490195"
       y1="0.49019608"
       xlink:href="#linearGradient841"
       x2="0.10833333"
       x1="1.3833333"
       id="linearGradient845" />
    <linearGradient
       xlink:href="#linearGradient841"
       id="linearGradient844" />
    <linearGradient
       y2="0.50735295"
       y1="-1.0294118"
       xlink:href="#linearGradient841"
       x2="0.63483149"
       x1="0.56179774"
       id="linearGradient852" />
    <radialGradient
       r="5.171875"
       fy="58.000893"
       fx="93.754448"
       cy="58.000893"
       cx="93.754448"
       gradientTransform="matrix(2.3213164,0.5347427,-0.4786352,2.0777682,-13.214195,35.998469)"
       gradientUnits="userSpaceOnUse"
       id="radialGradient14986"
       xlink:href="#linearGradient12030"
       inkscape:collect="always" />
    <filter
       id="filter10072"
       inkscape:collect="always">
      <feGaussianBlur
         id="feGaussianBlur10074"
         stdDeviation="0.12417059"
         inkscape:collect="always" />
    </filter>
    <radialGradient
       gradientUnits="userSpaceOnUse"
       gradientTransform="matrix(1.7825207,3.1594937,-1.5483636,0.8735563,-63.066864,-637.44012)"
       r="37.867733"
       fy="141.2906"
       fx="230.35513"
       cy="141.2906"
       cx="230.35513"
       id="radialGradient7581"
       xlink:href="#linearGradient7583"
       inkscape:collect="always" />
    <linearGradient
       id="linearGradient7583"
       inkscape:collect="always">
      <stop
         id="stop7585"
         offset="0"
         style="stop-color:#000000;stop-opacity:1;" />
      <stop
         id="stop7587"
         offset="1"
         style="stop-color:#000000;stop-opacity:0;" />
    </linearGradient>
    <linearGradient
       id="linearGradient12030">
      <stop
         id="stop12032"
         offset="0"
         style="stop-color:#4e2a2a;stop-opacity:0;" />
      <stop
         id="stop12034"
         offset="1"
         style="stop-color:#888ea3;stop-opacity:1;" />
    </linearGradient>
    <linearGradient
       id="linearGradient21803">
      <stop
         id="stop21805"
         offset="0"
         style="stop-color:#000000;stop-opacity:1;" />
      <stop
         style="stop-color:#bcbcbc;stop-opacity:1;"
         offset="0.5"
         id="stop21811" />
      <stop
         id="stop21813"
         offset="0.75"
         style="stop-color:#000000;stop-opacity:1;" />
      <stop
         id="stop21807"
         offset="1"
         style="stop-color:#c6c6c6;stop-opacity:1;" />
    </linearGradient>
    <linearGradient
       inkscape:collect="always"
       xlink:href="#linearGradient1507"
       id="linearGradient8716"
       gradientUnits="userSpaceOnUse"
       gradientTransform="scale(0.94468882,1.0585496)"
       x1="201.38964"
       y1="843.20789"
       x2="547.80806"
       y2="383.7653" />
    <radialGradient
       inkscape:collect="always"
       xlink:href="#linearGradient21803"
       id="radialGradient8724"
       gradientUnits="userSpaceOnUse"
       gradientTransform="matrix(0.4348016,0.9951608,-1.077316,0.4706947,389.97073,-109.24406)"
       cx="264.23416"
       cy="222.10579"
       fx="264.23416"
       fy="222.10579"
       r="52.252605" />
    <radialGradient
       inkscape:collect="always"
       xlink:href="#linearGradient12030"
       id="radialGradient8726"
       gradientUnits="userSpaceOnUse"
       gradientTransform="matrix(2.3213164,0.5347427,-0.4786352,2.0777682,-13.214195,35.998469)"
       cx="93.754448"
       cy="58.000893"
       fx="93.754448"
       fy="58.000893"
       r="5.171875" />
    <radialGradient
       inkscape:collect="always"
       xlink:href="#linearGradient21803"
       id="radialGradient8728"
       gradientUnits="userSpaceOnUse"
       gradientTransform="matrix(1.6787409,0.8438963,-0.7760842,1.543844,44.457299,-345.38475)"
       cx="238.24939"
       cy="265.65021"
       fx="238.24939"
       fy="265.65021"
       r="31.758036" />
    <linearGradient
       inkscape:collect="always"
       xlink:href="#linearGradient1507"
       id="linearGradient5232"
       gradientUnits="userSpaceOnUse"
       gradientTransform="scale(0.94468882,1.0585496)"
       x1="201.38964"
       y1="843.20789"
       x2="547.80806"
       y2="383.7653" />
    <linearGradient
       inkscape:collect="always"
       xlink:href="#linearGradient1507"
       id="linearGradient6582"
       gradientUnits="userSpaceOnUse"
       gradientTransform="scale(0.94468882,1.0585496)"
       x1="201.38964"
       y1="843.20789"
       x2="547.80806"
       y2="383.7653" />
    <linearGradient
       inkscape:collect="always"
       xlink:href="#linearGradient1507"
       id="linearGradient6988"
       gradientUnits="userSpaceOnUse"
       gradientTransform="scale(0.94318133,1.0602415)"
       x1="207.86863"
       y1="836.03087"
       x2="544.7869"
       y2="389.18798" />
    <linearGradient
       inkscape:collect="always"
       xlink:href="#linearGradient1507"
       id="linearGradient6990"
       gradientUnits="userSpaceOnUse"
       gradientTransform="scale(0.94394176,1.0593874)"
       x1="204.63277"
       y1="839.61707"
       x2="546.29556"
       y2="386.4817" />
    <linearGradient
       inkscape:collect="always"
       xlink:href="#linearGradient1507"
       id="linearGradient6992"
       gradientUnits="userSpaceOnUse"
       gradientTransform="scale(0.94468882,1.0585496)"
       x1="201.38964"
       y1="843.20789"
       x2="547.80806"
       y2="383.7653" />
    <linearGradient
       inkscape:collect="always"
       xlink:href="#linearGradient1507"
       id="linearGradient6994"
       gradientUnits="userSpaceOnUse"
       gradientTransform="scale(0.94468882,1.0585496)"
       x1="201.38964"
       y1="843.20789"
       x2="547.80806"
       y2="383.7653" />
    <linearGradient
       inkscape:collect="always"
       xlink:href="#linearGradient1492"
       id="linearGradient6996"
       gradientUnits="userSpaceOnUse"
       gradientTransform="scale(0.95542499,1.0466546)"
       x1="728.96644"
       y1="230.07422"
       x2="351.7063"
       y2="689.86002" />
    <linearGradient
       inkscape:collect="always"
       xlink:href="#linearGradient1501"
       id="linearGradient6998"
       gradientUnits="userSpaceOnUse"
       gradientTransform="scale(0.98900911,1.011113)"
       x1="687.96373"
       y1="236.12772"
       x2="330.88033"
       y2="418.53634" />
    <linearGradient
       inkscape:collect="always"
       xlink:href="#linearGradient1492"
       id="linearGradient7000"
       gradientUnits="userSpaceOnUse"
       gradientTransform="scale(0.9552926,1.0467997)"
       x1="741.63899"
       y1="169.44361"
       x2="622.33327"
       y2="287.73826" />
    <radialGradient
       inkscape:collect="always"
       xlink:href="#linearGradient21803"
       id="radialGradient3944"
       gradientUnits="userSpaceOnUse"
       gradientTransform="matrix(0.4348016,0.9951608,-1.077316,0.4706947,389.97073,-109.24406)"
       cx="264.23416"
       cy="222.10579"
       fx="264.23416"
       fy="222.10579"
       r="52.252605" />
    <radialGradient
       inkscape:collect="always"
       xlink:href="#linearGradient12030"
       id="radialGradient3946"
       gradientUnits="userSpaceOnUse"
       gradientTransform="matrix(2.3213164,0.5347427,-0.4786352,2.0777682,-13.214195,35.998469)"
       cx="93.754448"
       cy="58.000893"
       fx="93.754448"
       fy="58.000893"
       r="5.171875" />
    <radialGradient
       inkscape:collect="always"
       xlink:href="#linearGradient21803"
       id="radialGradient3948"
       gradientUnits="userSpaceOnUse"
       gradientTransform="matrix(1.6787409,0.8438963,-0.7760842,1.543844,44.457299,-345.38475)"
       cx="238.24939"
       cy="265.65021"
       fx="238.24939"
       fy="265.65021"
       r="31.758036" />
    <linearGradient
       inkscape:collect="always"
       xlink:href="#linearGradient1507"
       id="linearGradient4029"
       gradientUnits="userSpaceOnUse"
       gradientTransform="scale(0.94468882,1.0585496)"
       x1="201.38964"
       y1="843.20789"
       x2="547.80806"
       y2="383.7653" />
    <radialGradient
       inkscape:collect="always"
       xlink:href="#linearGradient21803"
       id="radialGradient4037"
       gradientUnits="userSpaceOnUse"
       gradientTransform="matrix(0.4348016,0.9951608,-1.077316,0.4706947,389.97073,-109.24406)"
       cx="264.23416"
       cy="222.10579"
       fx="264.23416"
       fy="222.10579"
       r="52.252605" />
    <radialGradient
       inkscape:collect="always"
       xlink:href="#linearGradient12030"
       id="radialGradient4039"
       gradientUnits="userSpaceOnUse"
       gradientTransform="matrix(2.3213164,0.5347427,-0.4786352,2.0777682,-13.214195,35.998469)"
       cx="93.754448"
       cy="58.000893"
       fx="93.754448"
       fy="58.000893"
       r="5.171875" />
    <radialGradient
       inkscape:collect="always"
       xlink:href="#linearGradient21803"
       id="radialGradient4041"
       gradientUnits="userSpaceOnUse"
       gradientTransform="matrix(1.6787409,0.8438963,-0.7760842,1.543844,44.457299,-345.38475)"
       cx="238.24939"
       cy="265.65021"
       fx="238.24939"
       fy="265.65021"
       r="31.758036" />
    <linearGradient
       inkscape:collect="always"
       xlink:href="#linearGradient1507"
       id="linearGradient3169"
       gradientUnits="userSpaceOnUse"
       gradientTransform="scale(0.94318133,1.0602415)"
       x1="207.86863"
       y1="836.03087"
       x2="544.7869"
       y2="389.18798" />
    <linearGradient
       inkscape:collect="always"
       xlink:href="#linearGradient1507"
       id="linearGradient3171"
       gradientUnits="userSpaceOnUse"
       gradientTransform="scale(0.94394176,1.0593874)"
       x1="204.63277"
       y1="839.61707"
       x2="546.29556"
       y2="386.4817" />
    <linearGradient
       inkscape:collect="always"
       xlink:href="#linearGradient1507"
       id="linearGradient3173"
       gradientUnits="userSpaceOnUse"
       gradientTransform="scale(0.94468882,1.0585496)"
       x1="201.38964"
       y1="843.20789"
       x2="547.80806"
       y2="383.7653" />
    <linearGradient
       inkscape:collect="always"
       xlink:href="#linearGradient1507"
       id="linearGradient3175"
       gradientUnits="userSpaceOnUse"
       gradientTransform="scale(0.94468882,1.0585496)"
       x1="201.38964"
       y1="843.20789"
       x2="547.80806"
       y2="383.7653" />
    <linearGradient
       inkscape:collect="always"
       xlink:href="#linearGradient1492"
       id="linearGradient3177"
       gradientUnits="userSpaceOnUse"
       gradientTransform="scale(0.95542499,1.0466546)"
       x1="728.96644"
       y1="230.07422"
       x2="351.7063"
       y2="689.86002" />
    <linearGradient
       inkscape:collect="always"
       xlink:href="#linearGradient1501"
       id="linearGradient3179"
       gradientUnits="userSpaceOnUse"
       gradientTransform="scale(0.98900911,1.011113)"
       x1="687.96373"
       y1="236.12772"
       x2="330.88033"
       y2="418.53634" />
    <linearGradient
       inkscape:collect="always"
       xlink:href="#linearGradient1492"
       id="linearGradient3181"
       gradientUnits="userSpaceOnUse"
       gradientTransform="scale(0.9552926,1.0467997)"
       x1="741.63899"
       y1="169.44361"
       x2="622.33327"
       y2="287.73826" />
  </defs>
  <sodipodi:namedview
     id="base"
     pagecolor="#ffffff"
     bordercolor="#666666"
     borderopacity="1.0"
     inkscape:pageopacity="0.0"
     inkscape:pageshadow="2"
     inkscape:zoom="0.49497476"
     inkscape:cx="13.90623"
     inkscape:cy="407.85142"
     inkscape:document-units="px"
     inkscape:current-layer="layer1"
     showgrid="false"
     inkscape:window-width="1855"
     inkscape:window-height="1056"
     inkscape:window-x="65"
     inkscape:window-y="24"
     inkscape:window-maximized="1"
     inkscape:snap-global="true"
     inkscape:snap-bbox="false"
     inkscape:object-paths="false" />
  <metadata
     id="metadata7">
    <rdf:RDF>
      <cc:Work
         rdf:about="">
        <dc:format>image/svg+xml</dc:format>
        <dc:type
           rdf:resource="http://purl.org/dc/dcmitype/StillImage" />
        <dc:title></dc:title>
      </cc:Work>
    </rdf:RDF>
  </metadata>
  <g
     inkscape:label="Calque 1"
     inkscape:groupmode="layer"
     id="layer1">
    <path
       style="fill:none;stroke:#000000;stroke-width:5;stroke-linecap:butt;stroke-linejoin:miter;stroke-miterlimit:4;stroke-opacity:1;stroke-dasharray:none;marker-end:url(#Arrow1Lend)"
       d="m 619.56589,-78.67642 0,228.65429"
       id="path5783"
       inkscape:connector-type="polyline"
       inkscape:connector-curvature="3" />
    <path
       style="fill:none;stroke:#000000;stroke-width:5;stroke-linecap:butt;stroke-linejoin:miter;stroke-miterlimit:4;stroke-opacity:1;stroke-dasharray:none;marker-end:url(#Arrow1Lend)"
       d="m 619.56589,681.67914 0,228.65426"
       id="path5824"
       inkscape:connector-type="polyline"
       inkscape:connector-curvature="3" />
    <path
       style="fill:none;stroke:#000000;stroke-width:5;stroke-linecap:butt;stroke-linejoin:miter;stroke-miterlimit:4;stroke-opacity:1;stroke-dasharray:none;marker-end:url(#Arrow1Lend)"
       d="m 619.56589,428.22727 0,228.6543"
       id="path5826"
       inkscape:connector-type="polyline"
       inkscape:connector-curvature="3" />
    <path
       style="fill:none;stroke:#000000;stroke-width:5;stroke-linecap:butt;stroke-linejoin:miter;stroke-miterlimit:4;stroke-opacity:1;stroke-dasharray:none;marker-end:url(#Arrow1Lend)"
       d="m 619.56589,174.77544 0,228.65426"
       id="path5828"
       inkscape:connector-type="polyline"
       inkscape:connector-curvature="3" />
    <path
       style="fill:none;stroke:#000000;stroke-width:5;stroke-linecap:butt;stroke-linejoin:miter;stroke-miterlimit:4;stroke-opacity:1;stroke-dasharray:none;marker-end:url(#Arrow1Lend)"
       d="m -112.92526,-44.075199 394.80448,0"
       id="path6584"
       inkscape:connector-type="polyline"
       inkscape:connector-curvature="3" />
    <path
       style="fill:none;stroke:#000000;stroke-width:5;stroke-linecap:butt;stroke-linejoin:miter;stroke-miterlimit:4;stroke-opacity:1;stroke-dasharray:none;marker-end:url(#Arrow1Lend)"
       d="m 514.46951,967.7322 -398.49907,0"
       id="path6586"
       inkscape:connector-type="polyline"
       inkscape:connector-curvature="3" />
    <g
       id="g5763"
       transform="translate(-79.459652,154.54524)">
      <rect
         y="3.473587"
         x="366.1503"
         height="101.71579"
         width="665.75049"
         id="rect2985-1-5"
         style="fill:#ffffff;fill-rule:evenodd;stroke:#000000;stroke-width:2;stroke-linecap:butt;stroke-linejoin:miter;stroke-miterlimit:4;stroke-opacity:1;stroke-dasharray:none" />
      <text
         xml:space="preserve"
         style="font-size:40px;font-style:normal;font-weight:normal;line-height:125%;letter-spacing:0px;word-spacing:0px;fill:#000000;fill-opacity:1;stroke:none;font-family:Bitstream Vera Sans"
         x="696.40051"
         y="77.590271"
         id="text3030"
         sodipodi:linespacing="125%"><tspan
           style="font-size:68px;font-style:normal;font-variant:normal;font-weight:normal;font-stretch:normal;text-align:center;line-height:125%;writing-mode:lr-tb;text-anchor:middle;font-family:Times New Roman;-inkscape-font-specification:'Times New Roman,'"
           sodipodi:role="line"
           id="tspan3032"
           x="696.40051"
           y="77.590271">Candidate Extraction</tspan></text>
    </g>
    <g
       id="g5768"
       transform="translate(-103.70334,60.00458)">
      <rect
         y="350.96606"
         x="390.39398"
         height="101.71579"
         width="665.75049"
         id="rect2985-1-2"
         style="fill:#ffffff;fill-rule:evenodd;stroke:#000000;stroke-width:2;stroke-linecap:butt;stroke-linejoin:miter;stroke-miterlimit:4;stroke-opacity:1;stroke-dasharray:none" />
      <text
         sodipodi:linespacing="125%"
         id="text3034"
         y="418.0769"
         x="720.64423"
         style="font-size:40px;font-style:normal;font-weight:normal;line-height:125%;letter-spacing:0px;word-spacing:0px;fill:#000000;fill-opacity:1;stroke:none;font-family:Bitstream Vera Sans"
         xml:space="preserve"><tspan
           y="418.0769"
           x="720.64423"
           id="tspan3036"
           sodipodi:role="line"
           style="font-size:68px;font-style:normal;font-variant:normal;font-weight:normal;font-stretch:normal;text-align:center;line-height:125%;writing-mode:lr-tb;text-anchor:middle;font-family:Times New Roman;-inkscape-font-specification:'Times New Roman,'">Candidate Clustering</tspan></text>
    </g>
    <g
       id="g5778"
       transform="translate(-46.147396,-67.703842)">
      <rect
         y="731.62634"
         x="332.83804"
         height="101.71579"
         width="665.75049"
         id="rect2985-1"
         style="fill:#ffffff;fill-rule:evenodd;stroke:#000000;stroke-width:2;stroke-linecap:butt;stroke-linejoin:miter;stroke-miterlimit:4;stroke-opacity:1;stroke-dasharray:none" />
      <text
         sodipodi:linespacing="125%"
         id="text3038"
         y="798.73718"
         x="663.08826"
         style="font-size:40px;font-style:normal;font-weight:normal;line-height:125%;letter-spacing:0px;word-spacing:0px;fill:#000000;fill-opacity:1;stroke:none;font-family:Bitstream Vera Sans"
         xml:space="preserve"><tspan
           y="798.73718"
           x="663.08826"
           id="tspan3040"
           sodipodi:role="line"
           style="font-size:68px;text-align:center;text-anchor:middle;font-family:Times New Roman;-inkscape-font-specification:Times New Roman">Graph-Based Ranking</tspan></text>
    </g>
    <g
       id="g5773"
       transform="translate(-103.70334,-125.03606)">
      <rect
         y="1041.9104"
         x="390.39398"
         height="101.71579"
         width="665.75049"
         id="rect2985-1-20"
         style="fill:#ffffff;fill-rule:evenodd;stroke:#000000;stroke-width:2;stroke-linecap:butt;stroke-linejoin:miter;stroke-miterlimit:4;stroke-opacity:1;stroke-dasharray:none" />
      <text
         sodipodi:linespacing="125%"
         id="text3042"
         y="1109.0212"
         x="721.42548"
         style="font-size:40px;font-style:normal;font-weight:normal;line-height:125%;letter-spacing:0px;word-spacing:0px;fill:#000000;fill-opacity:1;stroke:none;font-family:Bitstream Vera Sans"
         xml:space="preserve"><tspan
           y="1109.0212"
           x="721.42548"
           id="tspan3044"
           sodipodi:role="line"
           style="font-size:68px;text-align:center;text-anchor:middle;font-family:Times New Roman;-inkscape-font-specification:Times New Roman">Keyphrase Selection</tspan></text>
    </g>
    <g
       id="g3136"
       transform="translate(-68.864445,236.96396)">
      <g
         transform="translate(-22.717033,0)"
         id="g5758">
        <rect
           style="fill:#ffffff;fill-rule:evenodd;stroke:#000000;stroke-width:2;stroke-linecap:butt;stroke-linejoin:miter;stroke-miterlimit:4;stroke-opacity:1;stroke-dasharray:none"
           id="rect2985-1-0"
           width="665.75049"
           height="101.71579"
           x="378.27209"
           y="-331.89703" />
        <text
           xml:space="preserve"
           style="font-size:40px;font-style:normal;font-weight:normal;line-height:125%;letter-spacing:0px;word-spacing:0px;fill:#000000;fill-opacity:1;stroke:none;font-family:Bitstream Vera Sans"
           x="711.14734"
           y="-265.8653"
           id="text6523"
           sodipodi:linespacing="125%"><tspan
             id="tspan3132"
             sodipodi:role="line"
             x="711.14734"
             y="-265.8653"
             style="font-size:68px;font-style:normal;font-variant:normal;font-weight:normal;font-stretch:normal;text-align:center;line-height:125%;writing-mode:lr-tb;text-anchor:middle;font-family:Times New Roman;-inkscape-font-specification:'Times New Roman,'"> Preprocessing</tspan></text>
      </g>
    </g>
    <g
       id="g3183"
       transform="translate(82,0)">
      <g
         transform="matrix(1.04579,0,0,1.1226847,-228.82095,-135.53192)"
         id="g8166">
        <path
           inkscape:connector-curvature="0"
           d="m 17.159384,6.3292894 0,36.7392366 0,36.739242 0,36.739232 0,36.73924 33.52764,0 33.52764,0 33.527636,0 33.52764,0 0,-36.73924 0,-36.739232 0,-36.739242 -33.52764,-36.7392366 -33.527636,0 -33.52764,0 -33.52764,0 z"
           id="path930"
           sodipodi:nodetypes="cccccccccccccccc"
           style="fill:#ffffff;fill-rule:evenodd;stroke-width:0.42649043;stroke-opacity:0.3647799" />
        <g
           id="g1552"
           style="fill:url(#linearGradient3175)"
           transform="matrix(0.304171,0,0,0.297572,-36.70399,-112.488)">
          <path
             inkscape:connector-curvature="0"
             d="m 173.35959,408.8126 0,122.261 0,122.261 0,122.261 0,122.261 108.76228,0 108.7623,0 108.76229,0 108.76228,0 0,-122.261 0,-122.261 0,-122.261 -108.76228,-122.261 -108.76229,0 -108.7623,0 -108.76228,0 z"
             id="path1505"
             sodipodi:nodetypes="cccccccccccccccc"
             style="fill:url(#linearGradient3169);fill-opacity:0.75;fill-rule:evenodd;stroke-width:0.95407495pt" />
          <path
             inkscape:connector-curvature="0"
             d="m 170.125,407.1875 c 0,164.63542 0,329.27083 0,493.90625 147.17708,0 294.35417,0 441.53125,0 0,-123.76042 0,-247.52083 0,-371.28125 -36.84707,-41.42272 -73.68021,-82.85915 -110.5625,-124.25 -110.32292,0 -220.64583,0 -330.96875,0 0,0.33333 0,1.41667 0,1.625 z"
             id="path1538"
             style="fill:url(#linearGradient3171);fill-opacity:0.75;fill-rule:evenodd;stroke-width:0.95407495pt" />
          <path
             inkscape:connector-curvature="0"
             d="m 166.875,403.9375 c 0,166.80208 0,333.60417 0,500.40625 149.34375,0 298.6875,0 448.03125,0 0,-125.26042 0,-250.52083 0,-375.78125 -37.45108,-42.08952 -74.88871,-84.19233 -112.375,-126.25 -111.88542,0 -223.77083,0 -335.65625,0 0,0.33333 0,1.41667 0,1.625 z"
             id="path1543"
             style="fill:url(#linearGradient3173);fill-opacity:0.75;fill-rule:evenodd;stroke-width:0.95407495pt" />
        </g>
        <path
           inkscape:connector-curvature="0"
           d="m 297.99034,136.74154 0,123.8308 0,123.83081 0,123.8308 0,123.8308 113.006,0 113.00601,0 113.006,0 113.006,0 0,-123.8308 0,-123.8308 0,-123.83081 -113.006,-123.8308 -113.006,0 -113.00601,0 -113.006,0 z"
           id="rect900"
           sodipodi:nodetypes="cccccccccccccccc"
           style="fill:url(#linearGradient3177);fill-opacity:1;fill-rule:evenodd;stroke:#000000;stroke-width:1.4375;stroke-opacity:0.3647799"
           transform="matrix(0.296689,0,0,0.296689,-71.19601,-34.05825)" />
        <rect
           height="20.954082"
           id="rect1534"
           style="fill:#000000;fill-opacity:0.09433965;fill-rule:evenodd;stroke-width:1pt"
           width="74.377357"
           x="27.15877"
           y="16.710905" />
        <rect
           height="2.4428799"
           id="rect1535"
           style="fill-opacity:0.43396229;fill-rule:evenodd;stroke-width:1pt"
           width="115.28344"
           x="26.448841"
           y="48.976055" />
        <path
           inkscape:connector-curvature="0"
           d="m 301.30655,174.90867 -2.03586,453.99567 443.8164,0 0.25448,-112.22651 C 733.41677,520.49506 633.15091,378.49417 506.9279,384.60173 380.59029,390.71484 413.27857,193.23136 301.30655,174.90867 z"
           id="path1500"
           sodipodi:nodetypes="cccczc"
           style="fill:url(#linearGradient3179);fill-opacity:1;fill-rule:evenodd;stroke-width:1pt"
           transform="matrix(0.296689,0,0,0.296689,-71.19601,-34.05825)" />
        <rect
           height="2.4428799"
           id="rect1536"
           style="fill-opacity:0.43396229;fill-rule:evenodd;stroke-width:1pt"
           width="115.28344"
           x="26.448841"
           y="60.426273" />
        <rect
           height="2.4428799"
           id="rect1537"
           style="fill-opacity:0.43396229;fill-rule:evenodd;stroke-width:1pt"
           width="110.99767"
           x="26.448841"
           y="71.876495" />
        <rect
           height="2.4428799"
           id="rect1538"
           style="fill-opacity:0.43396229;fill-rule:evenodd;stroke-width:1pt"
           width="63.77132"
           x="26.448841"
           y="83.326706" />
        <rect
           height="2.4428799"
           id="rect1539"
           style="fill-opacity:0.43396229;fill-rule:evenodd;stroke-width:1pt"
           width="63.098103"
           x="26.448841"
           y="94.776939" />
        <path
           inkscape:connector-curvature="0"
           d="m 750.01435,260.57234 c -34.06975,-10.08632 -78.21647,-8.6561 -111.56643,-2.90718 5.75826,-36.94888 6.47805,-83.25495 -1.43957,-120.92362 l 113.006,123.8308 z"
           id="path906"
           sodipodi:nodetypes="cccc"
           style="fill:url(#linearGradient3181);fill-opacity:1;fill-rule:evenodd;stroke-width:0.95407495pt"
           transform="matrix(0.296689,0,0,0.296689,-71.19601,-34.05825)" />
        <rect
           height="42.933048"
           id="rect2441"
           style="fill:#b9b9b9;fill-opacity:0.27672957;fill-rule:evenodd;stroke:#000000;stroke-width:1pt;stroke-opacity:0.16352204"
           width="44.721928"
           x="96.599358"
           y="82.362732" />
        <rect
           height="2.4428799"
           id="rect3029"
           style="fill-opacity:0.43396229;fill-rule:evenodd;stroke-width:1pt"
           width="63.098103"
           x="26.509146"
           y="106.31729" />
        <rect
           height="2.4428799"
           id="rect3030"
           style="fill-opacity:0.43396229;fill-rule:evenodd;stroke-width:1pt"
           width="63.77132"
           x="26.559019"
           y="117.76752" />
        <rect
           height="2.4428799"
           id="rect3031"
           style="fill-opacity:0.43396229;fill-rule:evenodd;stroke-width:1pt"
           width="83.091194"
           x="26.559019"
           y="129.21773" />
        <rect
           height="2.4428799"
           id="rect3032"
           style="fill-opacity:0.43396229;fill-rule:evenodd;stroke-width:1pt"
           width="115.28344"
           x="26.559019"
           y="140.66795" />
      </g>
      <text
         sodipodi:linespacing="125%"
         id="text8787"
         y="95.03125"
         x="-142.88553"
         style="font-size:40px;font-style:normal;font-weight:normal;line-height:125%;letter-spacing:0px;word-spacing:0px;fill:#000000;fill-opacity:1;stroke:none;font-family:Times New Roman;-inkscape-font-specification:Times New Roman"
         xml:space="preserve"><tspan
           style="font-size:60px;text-align:center;text-anchor:middle"
           y="95.03125"
           x="-142.88553"
           id="tspan8789"
           sodipodi:role="line">Document</tspan></text>
    </g>
    <g
       id="g3925"
       transform="translate(13.135555,-45.03606)">
      <text
         sodipodi:linespacing="125%"
         id="text8791"
         y="1127.1813"
         x="-81.864838"
         style="font-size:40px;font-style:normal;font-weight:normal;line-height:125%;letter-spacing:0px;word-spacing:0px;fill:#000000;fill-opacity:1;stroke:none;font-family:Bitstream Vera Sans"
         xml:space="preserve"><tspan
           style="font-size:60px;text-align:center;text-anchor:middle;font-family:Times New Roman;-inkscape-font-specification:Times New Roman"
           y="1127.1813"
           x="-81.864838"
           id="tspan8793"
           sodipodi:role="line">Keyphrases</tspan></text>
      <g
         transform="matrix(1.1068282,0,0,1.2453378,-131.13581,-73.116644)"
         id="g3144">
        <g
           transform="translate(-131.33955,598.50647)"
           id="layer1-1"
           inkscape:label="Livello 1">
          <g
             id="g21823">
            <path
               style="fill:url(#radialGradient4037);fill-opacity:1;fill-rule:nonzero;stroke:none"
               id="path20819"
               d="m 231.56355,263.54447 c 3.32056,-2.40681 6.93557,-4.15381 10.69714,-5.65209 1.71092,-0.44281 3.4349,-0.80133 5.14661,-1.25045 1.93203,-0.48968 3.91014,-0.77552 5.87125,-1.12377 2.55669,-0.37572 5.13444,-0.52038 7.7127,-0.63735 1.61883,-0.15045 3.21571,-0.0473 4.82037,0.0815 1.28359,0.3015 2.19903,1.18424 3.22197,1.95811 2.13362,1.40718 4.39574,2.59756 6.5495,3.9713 1.69357,1.14114 3.60153,1.87633 5.52125,2.52929 1.49218,0.35784 3.03367,0.33668 4.55788,0.36463 1.49378,0.0582 2.98873,-0.0323 4.47116,-0.11247 1.16139,-0.10775 2.13651,-0.66905 3.16149,-1.1373 -13.2484,7.36582 2.22181,-1.37222 3.6868,-2.17104 1.55504,-0.34484 3.15169,-0.35253 4.73571,-0.38814 1.39543,-0.20949 2.58754,0.1358 3.88707,0.50429 1.10592,0.75929 2.30227,1.34079 3.4934,1.94593 1.29666,0.44005 2.21836,1.36366 3.19033,2.24558 0.66681,1.16879 0.63368,2.47869 0.6865,3.7837 0.0193,1.48139 0.009,2.96295 0.002,4.44439 -0.0192,1.5717 -0.0137,3.14357 -0.0176,4.71536 -0.0638,1.58078 -0.007,3.1281 0.2361,4.68604 0.4684,1.81426 1.75766,3.05694 3.03533,4.33917 1.20697,1.35454 2.62145,1.77577 4.23668,2.16305 -9.86858,6.39337 -5.74971,3.8117 -2.67116,0.87001 1.48834,-1.53363 3.0224,-3.01735 4.56124,-4.49999 1.28469,-1.18156 2.16954,-2.59024 2.91044,-4.14201 0.54349,-1.24819 0.66698,-2.59069 0.85057,-3.92087 0.16391,-1.31452 0.3783,-2.61768 0.60584,-3.92208 0.0928,-1.48776 0.56019,-2.85997 1.07576,-4.23808 0.39773,-0.96538 1.21095,-1.52697 1.91604,-2.23563 l 6.35268,-2.57327 c -0.71606,0.60437 -1.51663,1.10533 -1.97482,1.95225 -0.57132,1.30425 -1.08664,2.59407 -1.13115,4.04961 -0.24816,1.29766 -0.46172,2.59504 -0.62045,3.90719 -0.16921,1.3795 -0.29107,2.77278 -0.79892,4.08245 -0.67884,1.66502 -1.53325,3.146 -2.83282,4.42719 -1.53226,1.48822 -3.12428,2.90623 -4.5539,4.49881 -2.59072,2.55105 -5.57875,5.52042 -9.35505,5.78954 -1.64095,-0.62395 -3.18084,-1.24094 -4.41667,-2.61004 -1.37565,-1.38612 -2.73429,-2.74089 -3.28423,-4.6808 -0.30059,-1.59932 -0.37647,-3.17344 -0.29954,-4.80537 -10e-4,-1.57017 0.006,-3.14032 0.001,-4.71048 0.009,-1.47551 0.0277,-2.95117 0.0102,-4.42666 -0.0411,-1.13719 0.0189,-2.31149 -0.50445,-3.35222 -0.90856,-0.80934 -1.78496,-1.62554 -2.9884,-2.01684 -1.18337,-0.58841 -2.32299,-1.24264 -3.47606,-1.88511 -1.23225,-0.23226 -2.43316,-0.46399 -3.71375,-0.3086 -1.55012,0.0566 -3.12156,0.0749 -4.60885,0.57244 6.49214,-3.95345 4.60253,-2.56805 -3.63588,2.26098 -1.08791,0.39838 -2.1506,0.88342 -3.3369,0.93363 -1.49115,0.0177 -2.98346,0.0422 -4.47534,0.0131 -1.57724,-0.0462 -3.17579,-0.0413 -4.69617,-0.52519 -1.90999,-0.75018 -3.81002,-1.56032 -5.50297,-2.74162 -2.21504,-1.3322 -4.47975,-2.58145 -6.66092,-3.96967 -0.98362,-0.67388 -1.87484,-1.42989 -3.08581,-1.62342 -1.54711,-0.0851 -3.09501,-0.15847 -4.6485,-0.0543 -2.5679,0.12875 -5.14357,0.25323 -7.67557,0.73695 -1.95902,0.34342 -3.93322,0.63747 -5.8509,1.176 -1.70787,0.42723 -3.44668,0.74851 -5.1144,1.31529 -6.41545,2.66909 0.64277,-0.26992 1.23363,-1.14939 l -6.50806,2.54642 z"
               inkscape:connector-curvature="0" />
            <g
               id="g20807"
               transform="matrix(0,1,-1,0,439.71202,85.19463)">
              <path
                 id="path5178"
                 d="m 152.51712,195.39654 c -0.33614,0.33612 -4.83214,4.80088 -7.59376,7.5625 -1.96445,1.96444 -1.17487,1.20612 -5.375,5.40625 l 0,120.84375 c 4.04731,0.0658 6.29132,0.0976 10.00001,0.15625 0.60138,0.74456 1.52654,1.21875 2.5625,1.21875 l 49.03125,0 c 0.59354,0 1.14542,-0.1644 1.625,-0.4375 3.93338,0.0509 8.95903,0.11471 12.34375,0.15625 l 0,-121.03125 c -3.08804,-3.14646 -7.49538,-7.67534 -13.53125,-13.875 l -49.0625,0 z m 24.9375,8.03125 c 1.51453,0 2.7455,1.18207 2.75,2.625 0,1.44567 -1.23261,2.625 -2.75,2.625 -1.51739,0 -2.75,-1.17933 -2.75,-2.625 0,-1.44567 1.23261,-2.625 2.75,-2.625 z"
                 style="opacity:0.93664383;fill:#e7e7e0;fill-opacity:1;stroke:none"
                 inkscape:connector-curvature="0" />
              <path
                 sodipodi:nodetypes="ccccccccccccccccccccc"
                 id="path7568"
                 d="m 154.59104,195.9892 c -5.40142,0.82601 -8.30586,7.18908 -12.61574,10.42823 -2.81296,1.37753 -2.3334,4.11885 -2.2905,6.67931 0,38.59957 0,77.19914 0,115.79871 4.25472,0.1511 8.59232,-0.49865 12.70816,0.80048 14.01604,0.31253 28.05537,0.051 42.08059,0.13702 3.85296,0.0432 7.76631,0.12497 11.48107,-0.9375 2.88922,0 5.77845,0 8.66767,0 0,-39.73958 0,-79.47917 0,-119.21875 -4.54166,-4.54167 -9.08334,-9.08333 -13.625,-13.625 -15.46457,-0.14489 -30.93872,-0.0215 -46.40625,-0.0625 z m 2.32589,3.95536 c 11.6036,-2.10162 27.85465,-0.79706 42.3125,-0.65179 5.83647,4.05694 8.37055,9.64313 12.08036,14.19072 0,37.29357 0,74.58714 0,111.88071 -3.87573,0.13513 -7.82724,-0.45596 -11.56975,0.74811 -14.38309,0.29097 -28.78844,0.0461 -43.18025,0.12689 -3.08982,-0.0954 -5.98715,-1.26547 -9.11325,-0.875 -1.44392,-0.45864 -4.92933,1.12422 -4.48049,-1.22715 0,-37.25762 0,-74.51523 0,-111.77285 -0.0782,-4.83684 11.62895,-16.35898 13.95088,-12.41964 z"
                 style="opacity:0.51712329;fill:#909bc2;fill-opacity:1;stroke:none"
                 inkscape:connector-curvature="0" />
              <path
                 id="rect4622"
                 d="m 154.69623,194.87161 c -0.81799,0 -1.62265,0.0502 -2.40625,0.15625 -0.0845,0.017 -0.16125,0.0608 -0.21875,0.125 -7.96889,7.96889 -11.61397,11.61397 -12.5625,12.5625 -0.0776,0.0733 -0.12263,0.17455 -0.125,0.28125 -3.1e-4,0.036 0,0.0644 0,0.0937 l 0,98.40625 0,9.8125 0,11.875 c -0.002,0.10834 0.0401,0.21284 0.11679,0.28946 0.0766,0.0766 0.18112,0.11879 0.28946,0.11679 l 9.28125,0 c 1.74388,0.59402 3.63425,0.9375 5.625,0.9375 l 45.15625,0 c 1.98895,0 3.85373,-0.34498 5.59375,-0.9375 l 9.28125,0 c 0.10834,0.002 0.21284,-0.0402 0.28946,-0.11679 0.0766,-0.0766 0.11879,-0.18112 0.11679,-0.28946 l 0,-11.875 0,-9.8125 0,-97.53125 c -0.002,-0.1067 -0.0474,-0.20799 -0.125,-0.28125 -1.02875,-1.02874 -4.00105,-4.00105 -13.625,-13.625 -0.0655,-0.0704 -0.15432,-0.11484 -0.25,-0.125 -0.40956,-0.029 -0.83909,-0.0625 -1.28125,-0.0625 l -45.15625,0 z m 0,0.8125 45.15625,0 c 0.35915,0 0.72304,0.036 1.09375,0.0625 9.32794,9.32794 12.32972,12.32973 13.375,13.375 l 0,97.375 0,9.8125 0,11.46875 -8.875,0 c -0.0431,0.004 -0.0853,0.0141 -0.125,0.0312 -1.69136,0.59008 -3.52266,0.90625 -5.46875,0.90625 l -45.15625,0 c -1.94774,0 -3.80901,-0.31581 -5.5,-0.90625 -0.0397,-0.0171 -0.0819,-0.0277 -0.125,-0.0312 l -8.875,0 0,-11.46875 0,-9.8125 0,-98.34375 c 0.9824,-0.98241 4.58636,-4.58637 12.3125,-12.3125 0.71839,-0.0932 1.43652,-0.15625 2.1875,-0.15625 z"
                 style="fill:none;stroke:#a49595;stroke-width:1.09800005;stroke-linecap:round;stroke-linejoin:round;stroke-miterlimit:4;stroke-opacity:1;stroke-dasharray:none;stroke-dashoffset:0"
                 inkscape:connector-curvature="0" />
              <path
                 sodipodi:nodetypes="cssccssssccc"
                 id="path12053"
                 d="m 177.06288,201.3051 c -2.86145,0 -5.1875,2.32605 -5.1875,5.1875 0,2.86145 2.32605,5.1875 5.1875,5.1875 2.86144,0 5.15624,-2.32605 5.15625,-5.1875 l -2.875,0 c -0.23084,1.07339 -1.4469,1.875 -2.64188,1.875 -1.36569,0 -2.23312,-1.04309 -2.23312,-2.34375 0,-1.30066 1.10306,-2.375 2.46875,-2.375 1.36309,0 2.4647,1.07681 2.46875,2.375 0,0.16258 -0.0295,0.31541 -0.0625,0.46875 l 2.875,-0.0312 c -0.008,-2.85603 -2.30021,-5.15625 -5.15625,-5.15625 z"
                 style="opacity:0.52459986;fill:none;stroke:none"
                 inkscape:connector-curvature="0" />
              <path
                 style="opacity:0.52459986;fill:url(#radialGradient4039);fill-opacity:1;stroke:none;filter:url(#filter10072)"
                 d="m 176.67391,201.45787 c -2.86145,0 -5.1875,2.32606 -5.1875,5.1875 0,2.86145 2.32605,5.1875 5.1875,5.1875 2.86145,0 5.15625,-2.32605 5.15625,-5.1875 l -2.875,0 c -0.23082,1.07339 -1.21127,1.875 -2.40625,1.875 -1.36569,0 -2.46875,-1.04309 -2.46875,-2.34375 0,-1.30065 1.10306,-2.375 2.46875,-2.375 1.36311,0 2.4647,1.07681 2.46875,2.375 0,0.16259 -0.0295,0.31541 -0.0625,0.46875 l 2.875,-0.0312 c -0.008,-2.85602 -2.30021,-5.15625 -5.15625,-5.15625 z"
                 id="path12055"
                 inkscape:connector-curvature="0" />
              <path
                 inkscape:transform-center-x="0.89388949"
                 inkscape:transform-center-y="0.11832722"
                 id="path12057"
                 d="m 181.7245,205.61866 c -0.29268,-2.84644 -2.84445,-4.92237 -5.6909,-4.62969 -2.84643,0.29269 -4.92236,2.84446 -4.62968,5.6909 0.29269,2.84644 2.84126,4.89128 5.6877,4.5986 l -0.29407,-2.85992 c -1.09137,-0.11982 -1.98906,-1.01313 -2.11129,-2.20184 -0.13969,-1.35854 0.7851,-2.5625 2.07894,-2.69554 1.29383,-0.13303 2.47537,0.85435 2.61506,2.21288 0.13943,1.35595 -0.81905,2.56191 -2.11002,2.69873 -0.16173,0.0166 -0.31678,0.003 -0.47269,-0.0142 l 0.32516,2.85672 c 2.84018,-0.30056 4.89393,-2.81555 4.60179,-5.65661 z"
                 style="opacity:0.41095886;fill:none;stroke:#000000;stroke-width:0.80000001;stroke-linecap:round;stroke-linejoin:round;stroke-miterlimit:4;stroke-opacity:1;stroke-dasharray:none;stroke-dashoffset:0"
                 inkscape:connector-curvature="0" />
            </g>
            <path
               style="fill:url(#radialGradient4041);fill-opacity:1;fill-rule:nonzero;stroke:none"
               id="path20817"
               d="m 237.21618,259.69086 c 0.53023,1.16005 1.51043,1.685 2.50598,2.35052 1.62597,1.00669 3.51259,1.52155 5.2992,2.18626 2.46443,1.0176 5.06949,1.52856 7.61874,2.25491 3.00405,0.92251 6.04584,1.62174 9.13035,2.20928 2.74652,0.6914 5.33555,1.90772 7.88651,3.11936 1.60026,0.61057 2.90709,1.50553 4.22183,2.51656 1.00369,1.49116 1.50343,3.27982 2.09396,4.96977 0.74587,2.38371 0.89299,4.87434 1.06222,7.34759 0.19133,2.02815 -0.11943,4.03218 -0.41905,6.03047 -0.25331,1.50069 -0.64496,2.97177 -1.02084,4.44469 -0.51783,1.72144 -0.61813,3.50708 -0.74816,5.28706 -0.31246,3.01498 -0.0879,5.78622 1.00446,8.61099 1.50396,3.32945 3.85604,5.57205 7.1974,6.93722 2.67769,0.92057 5.45081,1.00928 8.22913,0.80207 2.64326,-0.70359 7.07228,-3.58849 -3.10314,2.19015 l 6.47956,-2.51419 c -3.52583,2.03492 -5.37808,3.76768 -8.88084,4.40674 -2.82514,0.0445 -5.65464,-0.12292 -8.33471,-1.14752 -3.4169,-1.54409 -5.86373,-3.96006 -7.46285,-7.39272 -1.19548,-2.88052 -1.51685,-5.7079 -1.237,-8.81724 0.0871,-1.78989 0.0921,-3.61037 0.60725,-5.34284 0.37796,-1.47245 0.7769,-2.94023 1.08337,-4.4309 0.32177,-1.96268 0.67445,-3.93247 0.53582,-5.93144 -0.14098,-2.4106 -0.25079,-4.84267 -1.00056,-7.16086 -0.56215,-1.59224 -1.06293,-3.26526 -2.00763,-4.67222 -1.25853,-0.90587 -2.54775,-1.74015 -3.9959,-2.37536 -2.49782,-1.19593 -5.03045,-2.40266 -7.75105,-2.99882 -3.08923,-0.61499 -6.12643,-1.39156 -9.15672,-2.25023 -2.59675,-0.66484 -5.18962,-1.30061 -7.70156,-2.2574 -1.84012,-0.68048 -3.76711,-1.20947 -5.44977,-2.23891 -1.05934,-0.78047 -2.13522,-1.44029 -2.76392,-2.67231 l 6.07792,-3.46068 z"
               inkscape:connector-curvature="0" />
          </g>
        </g>
        <text
           xml:space="preserve"
           style="font-size:40px;font-style:normal;font-weight:normal;line-height:125%;letter-spacing:0px;word-spacing:0px;fill:#000000;fill-opacity:1;stroke:none;font-family:Bitstream Vera Sans"
           x="-14.142135"
           y="856.84778"
           id="text3161"
           sodipodi:linespacing="125%"><tspan
             sodipodi:role="line"
             x="-14.142135"
             y="856.84778"
             style="font-size:9px;font-family:Times New Roman;-inkscape-font-specification:Times New Roman"
             id="tspan3138">keyphrases associated to the</tspan><tspan
             sodipodi:role="line"
             x="-14.142135"
             y="868.09778"
             style="font-size:9px;font-family:Times New Roman;-inkscape-font-specification:Times New Roman"
             id="tspan3142">document</tspan></text>
      </g>
    </g>
    <rect
       style="fill:none;stroke:#000000;stroke-width:2;stroke-linecap:butt;stroke-linejoin:miter;stroke-miterlimit:4;stroke-opacity:1;stroke-dasharray:16,8;stroke-dashoffset:0"
       id="rect3160"
       width="886.22571"
       height="512.71918"
       x="106.64847"
       y="44.626526" />
    <text
       xml:space="preserve"
       style="font-size:40px;font-style:normal;font-weight:normal;line-height:125%;letter-spacing:0px;word-spacing:0px;fill:#000000;fill-opacity:1;stroke:none;font-family:Times New Roman;-inkscape-font-specification:Times New Roman"
       x="114.63675"
       y="93.056213"
       id="text5388"
       sodipodi:linespacing="125%"><tspan
         sodipodi:role="line"
         id="tspan5390"
         x="114.63675"
         y="93.056213"
         style="font-size:60px">Topic Identification</tspan></text>
  </g>
</svg>
