<?xml version="1.0" encoding="UTF-8" standalone="no"?>
<!-- Created with Inkscape (http://www.inkscape.org/) -->
<svg
   xmlns:dc="http://purl.org/dc/elements/1.1/"
   xmlns:cc="http://creativecommons.org/ns#"
   xmlns:rdf="http://www.w3.org/1999/02/22-rdf-syntax-ns#"
   xmlns:svg="http://www.w3.org/2000/svg"
   xmlns="http://www.w3.org/2000/svg"
   xmlns:xlink="http://www.w3.org/1999/xlink"
   xmlns:sodipodi="http://sodipodi.sourceforge.net/DTD/sodipodi-0.dtd"
   xmlns:inkscape="http://www.inkscape.org/namespaces/inkscape"
   width="257.34698"
   height="59.384125"
   id="svg2"
   sodipodi:version="0.32"
   inkscape:version="0.46"
   version="1.0"
   sodipodi:docname="EDSTIM.svg"
   inkscape:output_extension="org.inkscape.output.svg.inkscape">
  <defs
     id="defs4">
    <linearGradient
       inkscape:collect="always"
       id="linearGradient2556">
      <stop
         style="stop-color:#8cb468;stop-opacity:1;"
         offset="0"
         id="stop2558" />
      <stop
         style="stop-color:#8cb468;stop-opacity:0;"
         offset="1"
         id="stop2560" />
    </linearGradient>
    <linearGradient
       inkscape:collect="always"
       id="linearGradient2544">
      <stop
         style="stop-color:#ea9578;stop-opacity:1;"
         offset="0"
         id="stop2546" />
      <stop
         style="stop-color:#ea9578;stop-opacity:0;"
         offset="1"
         id="stop2548" />
    </linearGradient>
    <inkscape:perspective
       sodipodi:type="inkscape:persp3d"
       inkscape:vp_x="0 : 526.18109 : 1"
       inkscape:vp_y="0 : 1000 : 0"
       inkscape:vp_z="744.09448 : 526.18109 : 1"
       inkscape:persp3d-origin="372.04724 : 350.78739 : 1"
       id="perspective10" />
    <inkscape:perspective
       id="perspective2390"
       inkscape:persp3d-origin="372.04724 : 350.78739 : 1"
       inkscape:vp_z="744.09448 : 526.18109 : 1"
       inkscape:vp_y="0 : 1000 : 0"
       inkscape:vp_x="0 : 526.18109 : 1"
       sodipodi:type="inkscape:persp3d" />
    <linearGradient
       inkscape:collect="always"
       xlink:href="#linearGradient2544"
       id="linearGradient2550"
       x1="390.71429"
       y1="153.79076"
       x2="287.85715"
       y2="153.79076"
       gradientUnits="userSpaceOnUse"
       gradientTransform="translate(7.1428572,98.214286)" />
    <linearGradient
       inkscape:collect="always"
       xlink:href="#linearGradient2556"
       id="linearGradient2562"
       x1="425.35715"
       y1="264.14789"
       x2="284.28571"
       y2="264.14792"
       gradientUnits="userSpaceOnUse" />
  </defs>
  <sodipodi:namedview
     id="base"
     pagecolor="#ffffff"
     bordercolor="#666666"
     borderopacity="1.0"
     inkscape:pageopacity="0.0"
     inkscape:pageshadow="2"
     inkscape:zoom="3.959798"
     inkscape:cx="129.4919"
     inkscape:cy="32.86397"
     inkscape:document-units="px"
     inkscape:current-layer="layer1"
     showgrid="false"
     inkscape:window-width="1280"
     inkscape:window-height="968"
     inkscape:window-x="-4"
     inkscape:window-y="-4" />
  <metadata
     id="metadata7">
    <rdf:RDF>
      <cc:Work
         rdf:about="">
        <dc:format>image/svg+xml</dc:format>
        <dc:type
           rdf:resource="http://purl.org/dc/dcmitype/StillImage" />
      </cc:Work>
    </rdf:RDF>
  </metadata>
  <g
     inkscape:label="Calque 1"
     inkscape:groupmode="layer"
     id="layer1"
     transform="translate(-179.08158,-212.43778)">
    <g
       id="g2524"
       transform="translate(12.121831,120.71323)">
      <path
         style="fill:#2e2e2e"
         d="M 205.95975,149.84509 L 198.45975,148.98634 L 191.95975,147.00701 L 185.45975,145.02767 L 181.67067,142.43289 L 177.88159,139.83811 L 174.90505,135.72911 L 171.9285,131.62011 L 171.29512,127.65913 L 170.5278,122.716 L 166.95975,122.73005 L 166.95975,120.96332 L 166.95975,118.83944 L 170.4599,118.77234 L 171.70328,113.63242 L 172.94666,108.98357 L 176.63975,104.89576 L 180.33284,100.80795 L 185.13736,98.373315 L 189.94189,95.938679 L 196.66228,94.380115 L 203.38268,92.82155 L 212.42122,92.642434 L 221.45975,92.463318 L 221.45975,93.963318 L 221.45975,95.463318 L 211.56855,96.222528 L 201.67735,96.981738 L 195.62853,98.549145 C 182.72839,101.89191 174.95975,108.83759 174.95975,117.02842 L 174.95975,118.96332 L 191.70975,118.97863 L 208.45975,118.99394 L 212.07001,118.97397 L 211.21598,120.73971 L 210.52885,121.85152 L 209.84172,122.96332 L 192.40073,122.96332 L 174.95975,122.96332 L 174.95975,125.50316 L 174.95975,128.04299 L 177.0064,132.05477 L 179.05306,136.06654 L 183.7564,139.04994 L 188.45975,142.03334 L 193.45975,143.52975 L 198.45975,145.02616 L 208.95975,146.06887 C 214.73475,146.64236 220.01466,147.28618 220.69289,147.49959 L 221.92603,147.88761 L 221.3359,149.42546 L 220.74577,150.96332 L 217.10276,150.83358 C 215.09911,150.76223 210.08475,150.31741 205.95975,149.84509 z M 232.61149,149.49814 L 231.99347,147.88761 L 233.22661,147.49959 C 233.90484,147.28618 239.18475,146.64236 244.95975,146.06887 L 255.45975,145.02616 L 260.45975,143.52975 L 265.45975,142.03334 L 270.1631,139.04994 L 274.86644,136.06654 L 276.9131,132.05477 L 278.95975,128.04299 L 278.95975,125.50316 L 278.95975,122.96332 L 271.88643,122.96332 L 264.8131,122.96332 L 265.14676,121.21332 L 265.48043,119.46332 L 272.34306,119.16483 L 279.2057,118.86633 L 278.63051,115.32187 L 278.05532,111.7774 L 275.47365,108.39265 L 272.89198,105.00791 L 268.67586,102.55977 L 264.45975,100.11163 L 258.35095,98.546683 L 252.24215,96.981738 L 242.35095,96.222528 L 232.45975,95.463318 L 232.45975,93.963318 L 232.45975,92.463318 L 236.86749,92.148113 L 241.27523,91.832907 L 251.34113,93.42719 L 261.40702,95.021472 L 266.93339,97.546537 L 272.45975,100.0716 L 275.83186,103.26746 L 279.20397,106.46332 L 281.0599,110.46332 L 282.91583,114.46332 L 282.93779,116.7483 L 282.95975,119.03328 L 293.19802,118.7483 L 303.4363,118.46332 L 303.77382,116.70046 L 304.11135,114.9376 L 299.03555,108.86301 L 293.95975,102.78843 L 293.95975,100.55019 L 293.95975,98.311946 L 296.20975,96.204245 C 297.44725,95.045009 299.72654,93.616567 301.27485,93.02993 L 304.08995,91.963318 L 322.52485,91.963318 L 340.95975,91.963318 L 340.95975,93.963318 L 340.95975,95.963318 L 339.45975,95.963318 L 337.95975,95.963318 L 337.95975,107.46332 L 337.95975,118.96332 L 346.95975,118.96332 L 355.95975,118.96332 L 355.95975,106.02233 L 355.95975,93.081352 L 357.05742,92.402954 L 358.15509,91.724555 L 363.53123,97.033915 L 368.90738,102.34327 L 373.96271,97.153296 C 376.74314,94.298808 379.44186,91.963318 379.95987,91.963318 L 380.9017,91.963318 L 381.18072,105.21332 L 381.45975,118.46332 L 391.63112,118.96332 L 401.8025,119.46332 L 402.48126,120.14679 L 403.16002,120.83026 L 402.50087,121.89679 L 401.84172,122.96332 L 389.90073,122.96332 L 377.95975,122.96332 L 377.95975,111.46332 L 377.95975,99.963318 L 377.33095,99.963318 C 376.98511,99.963318 374.91091,101.5816 372.72161,103.5595 L 368.74107,107.15568 L 365.05825,103.5595 C 363.03269,101.5816 361.0569,99.963318 360.66759,99.963318 L 359.95975,99.963318 L 359.95975,109.52906 L 359.95975,119.0948 L 358.92457,121.02906 L 357.88938,122.96332 L 344.48358,122.96332 L 331.07778,122.96332 L 330.47996,121.99603 L 329.88214,121.02873 L 331.92095,119.75548 L 333.95975,118.48222 L 333.95975,107.22277 L 333.95975,95.963318 L 327.99053,95.963318 L 322.02131,95.963318 L 321.74053,108.20114 L 321.45975,120.43897 L 319.74107,120.76843 L 318.02239,121.0979 L 317.74107,108.78061 L 317.45975,96.463318 L 311.28703,96.167607 L 305.11432,95.871895 L 301.53703,97.36658 L 297.95975,98.861265 L 297.95975,100.7573 L 297.95975,102.65334 L 300.10615,104.55833 C 301.28667,105.60607 303.53667,108.21833 305.10615,110.36336 L 307.95975,114.2634 L 307.95975,117.05665 L 307.95975,119.84991 L 305.73724,121.40661 L 303.51474,122.96332 L 293.70586,122.96332 L 283.89698,122.96332 L 283.54257,124.21332 C 283.34765,124.90082 282.65181,127.4322 281.99627,129.83862 L 280.80438,134.21392 L 276.07296,138.94535 L 271.34153,143.67678 L 265.80607,145.74786 C 259.54544,148.09026 251.96308,149.52287 240.84463,150.46405 L 233.22951,151.10868 L 232.61149,149.49814 z M 230.95975,118.46332 L 230.95975,104.96332 L 232.45975,104.96332 L 233.95975,104.96332 L 233.95975,118.46332 L 233.95975,131.96332 L 232.45975,131.96332 L 230.95975,131.96332 L 230.95975,118.46332 z"
         id="path2526"
         sodipodi:nodetypes="cccccccccccccccccccccccccccccccccccccccccccccccccccccccccccccccccccccccccccccccccccccccccccccccccccccccccccccccccccccccccccccccccccccccccccccccccccccccccccccccccccccccccccccccccccccccccccccccccccccc" />
    </g>
    <rect
       style="opacity:0.5;fill:url(#linearGradient2550);fill-opacity:1;fill-rule:nonzero;stroke:#faff00;stroke-width:0;stroke-miterlimit:4;stroke-dasharray:none;stroke-opacity:1"
       id="rect2534"
       width="141.42857"
       height="7.1428576"
       x="295"
       y="248.43361" />
    <rect
       style="opacity:0.5;fill:url(#linearGradient2562);fill-opacity:1;fill-rule:nonzero;stroke:#faff00;stroke-width:0;stroke-miterlimit:4;stroke-dasharray:none;stroke-opacity:1"
       id="rect2552"
       width="141.42857"
       height="7.1428576"
       x="284.28571"
       y="260.57648" />
  </g>
</svg>
