<?xml version="1.0" encoding="UTF-8" standalone="no"?>
<!-- Created with Inkscape (http://www.inkscape.org/) -->
<svg
   xmlns:dc="http://purl.org/dc/elements/1.1/"
   xmlns:cc="http://creativecommons.org/ns#"
   xmlns:rdf="http://www.w3.org/1999/02/22-rdf-syntax-ns#"
   xmlns:svg="http://www.w3.org/2000/svg"
   xmlns="http://www.w3.org/2000/svg"
   xmlns:sodipodi="http://sodipodi.sourceforge.net/DTD/sodipodi-0.dtd"
   xmlns:inkscape="http://www.inkscape.org/namespaces/inkscape"
   width="194.94852"
   height="60.802361"
   id="svg2"
   sodipodi:version="0.32"
   inkscape:version="0.46"
   version="1.0"
   sodipodi:docname="EMN.svg"
   inkscape:output_extension="org.inkscape.output.svg.inkscape">
  <defs
     id="defs4">
    <inkscape:perspective
       sodipodi:type="inkscape:persp3d"
       inkscape:vp_x="0 : 526.18109 : 1"
       inkscape:vp_y="0 : 1000 : 0"
       inkscape:vp_z="744.09448 : 526.18109 : 1"
       inkscape:persp3d-origin="372.04724 : 350.78739 : 1"
       id="perspective10" />
    <inkscape:perspective
       id="perspective2390"
       inkscape:persp3d-origin="372.04724 : 350.78739 : 1"
       inkscape:vp_z="744.09448 : 526.18109 : 1"
       inkscape:vp_y="0 : 1000 : 0"
       inkscape:vp_x="0 : 526.18109 : 1"
       sodipodi:type="inkscape:persp3d" />
  </defs>
  <sodipodi:namedview
     id="base"
     pagecolor="#ffffff"
     bordercolor="#666666"
     borderopacity="1.0"
     inkscape:pageopacity="0.0"
     inkscape:pageshadow="2"
     inkscape:zoom="1.979899"
     inkscape:cx="182.5943"
     inkscape:cy="-13.1752"
     inkscape:document-units="px"
     inkscape:current-layer="layer1"
     showgrid="false"
     inkscape:window-width="1280"
     inkscape:window-height="968"
     inkscape:window-x="-4"
     inkscape:window-y="-4" />
  <metadata
     id="metadata7">
    <rdf:RDF>
      <cc:Work
         rdf:about="">
        <dc:format>image/svg+xml</dc:format>
        <dc:type
           rdf:resource="http://purl.org/dc/dcmitype/StillImage" />
      </cc:Work>
    </rdf:RDF>
  </metadata>
  <g
     inkscape:label="Calque 1"
     inkscape:groupmode="layer"
     id="layer1"
     transform="translate(-134.28572,-568.48841)">
    <path
       style="fill:#818183;fill-opacity:1"
       d="M 134.28572,624.29078 C 134.28572,619.95745 134.39683,619.79078 137.28572,619.79078 C 138.93572,619.79078 140.28572,620.29326 140.28572,620.90741 C 140.28572,621.53171 139.40391,621.79344 138.28572,621.50103 C 136.98586,621.16111 136.28572,621.47035 136.28572,622.3844 C 136.28572,623.15791 137.29822,623.85206 138.53572,623.92696 L 140.78572,624.06314 L 138.53572,624.49651 C 135.74885,625.03329 135.55734,626.79078 138.28572,626.79078 C 139.38572,626.79078 140.28572,627.24078 140.28572,627.79078 C 140.28572,628.34078 138.93572,628.79078 137.28572,628.79078 C 134.39683,628.79078 134.28572,628.62411 134.28572,624.29078 z M 143.48572,627.59078 C 141.8409,625.94596 141.97713,622.29178 143.73773,620.83061 C 145.28111,619.54971 149.28572,620.29142 149.28572,621.85817 C 149.28572,623.12107 147.55898,623.04193 146.75571,621.74222 C 145.95938,620.45373 143.28572,622.41741 143.28572,624.29078 C 143.28572,626.16415 145.95938,628.12783 146.75571,626.83934 C 147.11213,626.26263 147.8823,625.79078 148.46718,625.79078 C 149.13777,625.79078 149.07073,626.34489 148.28572,627.29078 C 146.78283,629.10166 145.10167,629.20673 143.48572,627.59078 z M 152.6705,628.02547 C 148.72337,625.42516 151.12943,619.03277 155.63013,620.16237 C 157.84783,620.71898 158.28572,621.38523 158.28572,624.20284 C 158.28572,628.12848 155.60107,629.95608 152.6705,628.02547 z M 156.65978,623.02202 C 155.09312,620.53835 152.84257,620.88872 152.44823,623.67769 C 152.01856,626.71648 154.276,628.22802 156.26877,626.23585 C 157.39485,625.11012 157.48896,624.33654 156.65978,623.02202 z M 160.28572,624.23176 C 160.28572,621.18054 160.64824,619.89679 161.38184,620.35018 C 161.9847,620.72278 162.28764,622.32433 162.05503,623.9092 C 161.69237,626.3802 161.96364,626.79078 163.95891,626.79078 C 165.23866,626.79078 166.28572,627.24078 166.28572,627.79078 C 166.28572,628.34078 164.93572,628.79078 163.28572,628.79078 C 160.39108,628.79078 160.28572,628.63067 160.28572,624.23176 z M 168.00002,628.04078 C 167.77797,627.62828 167.63891,625.71578 167.691,623.79078 C 167.77346,620.74398 168.1418,620.24981 170.53572,619.97436 C 172.04822,619.80033 173.28572,620.08783 173.28572,620.61325 C 173.28572,621.13867 172.54665,621.50606 171.64335,621.42967 C 170.74004,621.35328 169.80254,621.85328 169.56001,622.54078 C 169.29585,623.28961 170.05456,623.84538 171.45239,623.92696 L 173.78572,624.06314 L 171.53572,624.49651 C 168.48797,625.08354 168.674,626.79078 171.78572,626.79078 C 173.16072,626.79078 174.28572,627.24078 174.28572,627.79078 C 174.28572,628.94288 168.60721,629.16873 168.00002,628.04078 z M 182.28572,624.29078 C 182.28572,620.26179 182.52646,619.79078 184.58572,619.79078 C 187.50529,619.79078 189.28572,621.55788 189.28572,624.4556 C 189.28572,626.74618 186.72277,628.79078 183.85146,628.79078 C 182.66243,628.79078 182.28572,627.70809 182.28572,624.29078 z M 187.56726,625.54078 C 188.12169,623.99452 186.55913,620.79078 185.25054,620.79078 C 184.71989,620.79078 184.28572,622.14078 184.28572,623.79078 C 184.28572,626.82504 186.65393,628.08797 187.56726,625.54078 z M 191.28572,624.29078 C 191.28572,619.87738 191.34827,619.79108 194.53572,619.80609 C 196.90138,619.81724 197.39055,620.07139 196.33347,620.74011 C 195.53473,621.2454 194.55332,621.45617 194.15256,621.20848 C 193.75181,620.9608 193.13891,621.2193 192.79057,621.78293 C 192.44224,622.34655 193.19864,623.22537 194.47148,623.73585 L 196.78572,624.66401 L 194.53572,624.72739 C 191.79278,624.80467 191.49533,626.79078 194.2267,626.79078 C 195.29424,626.79078 196.4458,627.24078 196.78572,627.79078 C 197.14629,628.3742 196.12944,628.79078 194.34474,628.79078 C 191.3859,628.79078 191.28572,628.64341 191.28572,624.29078 z M 199.28572,627.29078 C 198.50071,626.34489 198.43367,625.79078 199.10426,625.79078 C 199.68914,625.79078 200.45034,626.24812 200.7958,626.80709 C 201.50175,627.94933 203.28572,627.17888 203.28572,625.73176 C 203.28572,625.21422 202.43386,624.79078 201.39271,624.79078 C 199.37503,624.79078 198.30003,623.09437 199.01636,621.04078 C 199.51933,619.59888 202.89701,619.35281 203.72808,620.69752 C 204.0363,621.19623 203.38786,621.36874 202.2871,621.08089 C 199.37895,620.32039 199.80928,622.65914 202.78572,623.79078 C 205.59793,624.85998 206.10044,627.26416 203.70393,628.18379 C 201.35521,629.08508 200.65789,628.94414 199.28572,627.29078 z M 213.47822,624.6185 C 213.85654,619.48535 215.75565,618.55254 216.76983,623.00172 L 217.51956,626.29078 L 218.5473,623.04078 C 220.03803,618.32668 221.30607,619.05634 221.15408,624.54078 C 221.0255,629.1802 221.00529,629.2093 220.28572,625.79078 C 219.88053,623.86578 219.48287,623.19078 219.40205,624.29078 C 219.32122,625.39078 218.83509,626.95495 218.32176,627.76671 C 217.55958,628.97197 217.20725,628.78858 216.40046,626.76671 C 215.43667,624.35136 215.41094,624.34584 215.34911,626.54078 C 215.31424,627.77828 214.80985,628.79078 214.22822,628.79078 C 213.60473,628.79078 213.29692,627.07844 213.47822,624.6185 z M 223.28572,624.23176 C 223.28572,621.44706 223.67491,619.91328 224.28572,620.29078 C 224.83572,620.6307 225.28572,622.68226 225.28572,624.8498 C 225.28572,627.01734 224.83572,628.79078 224.28572,628.79078 C 223.73572,628.79078 223.28572,626.73922 223.28572,624.23176 z M 227.41736,624.54078 C 227.26915,619.19293 228.32098,618.4625 230.29739,622.54078 L 231.63009,625.29078 L 232.33959,622.29078 C 232.95053,619.70752 233.06553,619.96762 233.16741,624.16322 C 233.2686,628.33055 233.07425,628.86017 231.82445,627.82292 C 231.02075,627.15591 230.02692,625.63831 229.61593,624.45047 C 228.95835,622.54991 228.78952,622.71073 228.20885,625.79078 C 227.57886,629.13242 227.54305,629.07587 227.41736,624.54078 z M 235.28572,624.29078 C 235.28572,619.93815 235.3859,619.79078 238.34474,619.79078 C 240.25959,619.79078 241.15683,620.19031 240.74359,620.85895 C 240.38049,621.44645 239.45394,621.68557 238.68457,621.39034 C 237.89688,621.08807 237.28572,621.46481 237.28572,622.25261 C 237.28572,623.0221 238.29822,623.84669 239.53572,624.08505 L 241.78572,624.51842 L 239.53572,624.6546 C 236.7536,624.82299 236.52331,626.79078 239.28572,626.79078 C 240.38572,626.79078 241.28572,627.24078 241.28572,627.79078 C 241.28572,628.34078 239.93572,628.79078 238.28572,628.79078 C 235.39683,628.79078 235.28572,628.62411 235.28572,624.29078 z M 243.95239,628.12411 C 242.62271,626.79443 243.32406,625.57771 244.74192,626.75443 C 245.54282,627.41912 246.66782,627.67266 247.24192,627.31785 C 248.98823,626.23857 248.41329,624.948 246.03572,624.61033 C 244.56481,624.40143 243.78572,623.603 243.78572,622.30447 C 243.78572,619.99397 246.94606,619.021 248.64194,620.80939 C 249.5231,621.73863 249.28843,621.86562 247.61988,621.3625 C 244.23468,620.34175 243.92386,622.46898 247.28691,623.64135 C 248.93625,624.21631 250.28572,625.07015 250.28572,625.53876 C 250.28572,627.91556 245.6402,629.81192 243.95239,628.12411 z M 258.28572,624.29078 C 258.28572,620.26179 258.52646,619.79078 260.58572,619.79078 C 264.98146,619.79078 266.80737,624.12628 263.71429,627.21935 C 262.85001,628.08364 261.27501,628.79078 260.21429,628.79078 C 258.59524,628.79078 258.28572,628.06856 258.28572,624.29078 z M 263.10214,624.04078 C 262.91377,622.40363 262.17871,621.29078 261.28572,621.29078 C 260.39273,621.29078 259.65767,622.40363 259.4693,624.04078 C 259.21163,626.28011 259.54894,626.79078 261.28572,626.79078 C 263.0225,626.79078 263.35981,626.28011 263.10214,624.04078 z M 267.28572,624.29078 C 267.28572,619.89495 267.35979,619.79078 270.48572,619.79078 C 273.84597,619.79078 273.39564,621.23865 269.78572,622.0414 C 267.94331,622.4511 267.9827,622.57194 270.28572,623.57507 C 272.72308,624.63672 272.72935,624.6656 270.53572,624.72739 C 267.79278,624.80467 267.49533,626.79078 270.2267,626.79078 C 271.29424,626.79078 272.4458,627.24078 272.78572,627.79078 C 273.1463,628.3742 272.12944,628.79078 270.34474,628.79078 C 267.3859,628.79078 267.28572,628.64341 267.28572,624.29078 z M 281.28572,624.3498 C 281.28572,619.55652 282.50994,618.47271 284.25054,621.72504 C 285.55682,624.16585 285.56941,625.08414 284.28572,624.29078 C 283.73572,623.95086 283.28572,624.57275 283.28572,625.67275 C 283.28572,626.77275 282.83572,627.95086 282.28572,628.29078 C 281.67491,628.66828 281.28572,627.1345 281.28572,624.3498 z M 285.87546,627.16403 C 285.53212,626.26932 285.75932,624.92505 286.38034,624.17677 C 287.00136,623.42848 287.24825,622.13552 286.92898,621.30352 C 286.60971,620.47151 286.78437,619.79078 287.3171,619.79078 C 287.84984,619.79078 288.28572,621.81578 288.28572,624.29078 C 288.28572,628.78113 287.05773,630.245 285.87546,627.16403 z M 290.36467,627.86178 C 290.2307,625.43695 292.64311,619.74324 293.66075,620.08246 C 294.90969,620.49877 297.49074,627.93557 296.65279,628.70347 C 296.30031,629.02649 295.81102,628.72828 295.56548,628.04078 C 295.31995,627.35328 294.29405,626.79078 293.28572,626.79078 C 292.27739,626.79078 291.22541,627.35328 290.948,628.04078 C 290.58831,628.9322 290.42097,628.88085 290.36467,627.86178 z M 294.28572,624.23176 C 294.28572,623.3743 293.83572,622.95086 293.28572,623.29078 C 292.73572,623.6307 292.28572,624.33226 292.28572,624.8498 C 292.28572,625.36734 292.73572,625.79078 293.28572,625.79078 C 293.83572,625.79078 294.28572,625.08922 294.28572,624.23176 z M 299.18268,624.96603 C 298.92744,622.58741 299.04012,620.44257 299.43307,620.19972 C 300.74071,619.39155 301.07805,621.24727 300.35853,625.29078 L 299.64675,629.29078 L 299.18268,624.96603 z M 302.84242,626.56827 C 300.89364,623.786 300.8196,622.15904 302.71328,623.73066 C 303.88371,624.70203 304.21697,624.40888 304.56345,622.10311 C 304.83575,620.29103 305.03935,620.98019 305.13589,624.04078 C 305.2183,626.65328 305.08624,628.79078 304.84242,628.79078 C 304.59861,628.79078 303.69861,627.79065 302.84242,626.56827 z M 309.28572,625.69078 C 309.28572,623.76578 308.74572,621.65078 308.08572,620.99078 C 307.15239,620.05745 307.65239,619.79785 310.33572,619.82258 C 313.20843,619.84906 313.53343,620.05823 312.27799,621.07258 C 311.44874,621.74259 310.92434,623.35518 311.11266,624.65611 C 311.30097,625.95705 310.96695,627.50955 310.37038,628.10612 C 309.59083,628.88567 309.28572,628.20625 309.28572,625.69078 z M 315.20921,627.54078 C 315.16713,626.85328 314.97484,625.45485 314.7819,624.43315 C 314.21757,621.44482 315.32592,619.79078 317.89271,619.79078 C 319.20886,619.79078 320.28572,620.19078 320.28572,620.67967 C 320.28572,621.16856 319.54665,621.50606 318.64335,621.42967 C 317.74004,621.35328 316.80254,621.85328 316.56002,622.54078 C 316.29585,623.28961 317.05456,623.84538 318.45239,623.92696 L 320.78572,624.06314 L 318.53572,624.49651 C 315.7809,625.02711 315.54335,626.79078 318.2267,626.79078 C 319.29424,626.79078 320.4458,627.24078 320.78572,627.79078 C 321.1463,628.3742 320.12944,628.79078 318.34474,628.79078 C 316.605,628.79078 315.25272,628.25169 315.20921,627.54078 z M 323.95239,628.12411 C 322.68448,626.8562 323.2879,625.5477 324.62773,626.65966 C 325.36583,627.27223 326.26583,627.47733 326.62773,627.11544 C 327.71418,626.02898 327.37223,624.79078 325.98572,624.79078 C 324.06513,624.79078 322.36484,622.74817 322.97085,621.16893 C 323.60375,619.51962 326.88742,619.3373 327.85193,620.89791 C 328.31238,621.64294 327.84109,621.78443 326.41095,621.33053 C 323.37079,620.36562 323.71468,622.62317 326.78572,623.79078 C 329.59793,624.85998 330.10044,627.26416 327.70393,628.18379 C 325.67057,628.96407 324.77814,628.94987 323.95239,628.12411 z M 229.28572,590.08783 L 229.28572,569.38488 L 233.28572,573.29078 L 237.28572,577.19668 L 237.28572,593.99373 L 237.28572,610.79078 L 233.28572,610.79078 L 229.28572,610.79078 L 229.28572,590.08783 z M 246.35559,598.79078 C 246.41328,592.19078 246.21815,586.53824 246.53928,586.53824 C 246.86041,586.53824 248.39769,587.48712 249.33812,588.33821 C 250.88131,589.73477 251.19887,589.73477 252.59544,588.33821 C 253.44652,587.48712 254.90509,586.53824 255.21937,586.53824 C 255.53366,586.53824 255.28572,592.19078 255.28572,598.79078 L 255.28572,610.79078 L 250.7682,610.79078 L 246.25069,610.79078 L 246.35559,598.79078 z M 263.28572,593.99373 L 263.28572,577.19668 L 267.28572,573.29078 L 271.28572,569.38488 L 271.28572,590.08783 L 271.28572,610.79078 L 267.28572,610.79078 L 263.28572,610.79078 L 263.28572,593.99373 z M 228.75631,568.79078 L 228.75631,568.79078 z"
       id="path2428"
       sodipodi:nodetypes="csssscccsssccsssssssccssccssccsssssccssssscccssccsssccssccsssscccsssccssssssssscccccsssssssccssscccccssssccsssscccsssccssssssssccsssccsssccsssssssccssssccssssccsssssccsssccsccccssssccsssssccssssscccsssccsssssssscccccccccccsssscccccccccccccccc" />
    <path
       style="fill:#0068b9;fill-opacity:1"
       d="M 186.28863,606.98841 L 186.28863,602.48841 L 203.03863,602.49919 L 219.78863,602.50997 L 224.03863,606.57438 C 226.37613,608.80981 228.28863,611.33503 228.28863,611.56868 C 228.28863,611.80233 218.83863,611.48841 207.28863,611.48841 L 186.28863,611.48841 L 186.28863,606.98841 z M 186.28863,589.98841 L 186.28863,585.48841 L 198.94362,585.48841 C 211.14022,585.48841 212.17001,584.79704 210.57497,586.55954 C 209.66472,587.56535 208.28863,589.52502 208.28863,589.98841 C 208.28863,590.4518 209.03337,592.41147 209.94362,593.41728 C 211.53866,595.17978 211.14022,594.48841 198.94362,594.48841 L 186.28863,594.48841 L 186.28863,589.98841 z M 186.2684,576.63992 C 186.00173,576.37326 186.28863,574.43008 186.28863,572.32174 L 186.28863,568.48841 L 207.52392,568.48841 L 228.75922,568.48841 L 224.60237,572.64526 L 220.44553,576.8021 L 203.85193,576.96344 C 194.72545,577.05217 186.53506,576.90659 186.2684,576.63992 z"
       id="path2430"
       sodipodi:nodetypes="cccccsccccccssscccccccccccc" />
  </g>
</svg>
