<?xml version="1.0" encoding="UTF-8" standalone="no"?>
<!-- Created with Inkscape (http://www.inkscape.org/) -->
<svg
   xmlns:dc="http://purl.org/dc/elements/1.1/"
   xmlns:cc="http://creativecommons.org/ns#"
   xmlns:rdf="http://www.w3.org/1999/02/22-rdf-syntax-ns#"
   xmlns:svg="http://www.w3.org/2000/svg"
   xmlns="http://www.w3.org/2000/svg"
   xmlns:sodipodi="http://sodipodi.sourceforge.net/DTD/sodipodi-0.dtd"
   xmlns:inkscape="http://www.inkscape.org/namespaces/inkscape"
   width="610.20026"
   height="139.95026"
   id="svg2"
   sodipodi:version="0.32"
   inkscape:version="0.46"
   sodipodi:docname="LINA.svg"
   inkscape:output_extension="org.inkscape.output.svg.inkscape"
   version="1.0">
  <defs
     id="defs4">
    <inkscape:perspective
       sodipodi:type="inkscape:persp3d"
       inkscape:vp_x="0 : 526.18109 : 1"
       inkscape:vp_y="0 : 1000 : 0"
       inkscape:vp_z="744.09448 : 526.18109 : 1"
       inkscape:persp3d-origin="372.04724 : 350.78739 : 1"
       id="perspective10" />
    <inkscape:perspective
       id="perspective2464"
       inkscape:persp3d-origin="372.04724 : 350.78739 : 1"
       inkscape:vp_z="744.09448 : 526.18109 : 1"
       inkscape:vp_y="0 : 1000 : 0"
       inkscape:vp_x="0 : 526.18109 : 1"
       sodipodi:type="inkscape:persp3d" />
    <inkscape:perspective
       id="perspective2557"
       inkscape:persp3d-origin="372.04724 : 350.78739 : 1"
       inkscape:vp_z="744.09448 : 526.18109 : 1"
       inkscape:vp_y="0 : 1000 : 0"
       inkscape:vp_x="0 : 526.18109 : 1"
       sodipodi:type="inkscape:persp3d" />
    <inkscape:perspective
       id="perspective2607"
       inkscape:persp3d-origin="372.04724 : 350.78739 : 1"
       inkscape:vp_z="744.09448 : 526.18109 : 1"
       inkscape:vp_y="0 : 1000 : 0"
       inkscape:vp_x="0 : 526.18109 : 1"
       sodipodi:type="inkscape:persp3d" />
    <inkscape:perspective
       id="perspective2675"
       inkscape:persp3d-origin="372.04724 : 350.78739 : 1"
       inkscape:vp_z="744.09448 : 526.18109 : 1"
       inkscape:vp_y="0 : 1000 : 0"
       inkscape:vp_x="0 : 526.18109 : 1"
       sodipodi:type="inkscape:persp3d" />
    <inkscape:perspective
       id="perspective3037"
       inkscape:persp3d-origin="372.04724 : 350.78739 : 1"
       inkscape:vp_z="744.09448 : 526.18109 : 1"
       inkscape:vp_y="0 : 1000 : 0"
       inkscape:vp_x="0 : 526.18109 : 1"
       sodipodi:type="inkscape:persp3d" />
    <inkscape:perspective
       id="perspective3157"
       inkscape:persp3d-origin="372.04724 : 350.78739 : 1"
       inkscape:vp_z="744.09448 : 526.18109 : 1"
       inkscape:vp_y="0 : 1000 : 0"
       inkscape:vp_x="0 : 526.18109 : 1"
       sodipodi:type="inkscape:persp3d" />
  </defs>
  <sodipodi:namedview
     id="base"
     pagecolor="#ffffff"
     bordercolor="#666666"
     borderopacity="1.0"
     inkscape:pageopacity="0.0"
     inkscape:pageshadow="2"
     inkscape:zoom="0.98994949"
     inkscape:cx="855.17548"
     inkscape:cy="246.86121"
     inkscape:document-units="px"
     inkscape:current-layer="layer1"
     showgrid="false"
     inkscape:window-width="1280"
     inkscape:window-height="968"
     inkscape:window-x="-4"
     inkscape:window-y="-4" />
  <metadata
     id="metadata7">
    <rdf:RDF>
      <cc:Work
         rdf:about="">
        <dc:format>image/svg+xml</dc:format>
        <dc:type
           rdf:resource="http://purl.org/dc/dcmitype/StillImage" />
      </cc:Work>
    </rdf:RDF>
  </metadata>
  <g
     inkscape:label="Calque 1"
     inkscape:groupmode="layer"
     id="layer1"
     transform="translate(-296.66213,145.42452)">
    <g
       transform="matrix(1.25,0,0,-1.25,225.86238,67.024232)"
       inkscape:label="LINA"
       id="g3159">
      <g
         transform="scale(0.1,0.1)"
         id="g3161">
        <path
           id="path3163"
           style="fill:#a70000;fill-opacity:1;fill-rule:nonzero;stroke:none"
           d="M 2617.2,1267.59 L 2683.2,1267.59 L 2683.2,1259.19 L 2608.8,1259.19 L 2608.8,1394.79 L 2617.2,1394.79 L 2617.2,1267.59" />
        <path
           id="path3165"
           style="fill:#a70000;fill-opacity:1;fill-rule:nonzero;stroke:none"
           d="M 2782.8,1317.99 L 2725.2,1317.99 L 2749.2,1377.99 L 2782.8,1317.99 z M 2757.6,1394.79 L 2749.2,1394.79 L 2683.2,1259.19 L 2700,1259.19 L 2716.8,1309.59 L 2782.8,1309.59 L 2808,1259.19 L 2816.4,1259.19 L 2757.6,1394.79" />
        <path
           id="path3167"
           style="fill:#a70000;fill-opacity:1;fill-rule:nonzero;stroke:none"
           d="M 2841.6,1386.39 L 2857.2,1386.39 C 2882.4,1386.39 2899.2,1377.99 2899.2,1361.19 C 2899.2,1343.19 2890.8,1334.79 2857.2,1334.79 L 2841.6,1334.79 L 2841.6,1386.39 z M 2833.2,1394.79 L 2833.2,1259.19 L 2874,1259.19 C 2899.2,1259.19 2916,1275.99 2916,1292.79 C 2916,1309.59 2907.6,1326.39 2890.8,1326.39 C 2899.2,1334.79 2907.6,1343.19 2907.6,1361.19 C 2907.6,1377.99 2899.2,1394.79 2865.6,1394.79 L 2833.2,1394.79 z M 2841.6,1326.39 L 2865.6,1326.39 C 2899.2,1326.39 2907.6,1309.59 2907.6,1292.79 C 2907.6,1284.39 2899.2,1267.59 2874,1267.59 L 2841.6,1267.59 L 2841.6,1326.39" />
        <path
           id="path3169"
           style="fill:#a70000;fill-opacity:1;fill-rule:nonzero;stroke:none"
           d="M 3064.8,1326.39 C 3064.8,1292.79 3040.8,1267.59 3007.2,1267.59 C 2973.6,1267.59 2949.6,1292.79 2949.6,1326.39 C 2949.6,1361.19 2973.6,1386.39 3007.2,1386.39 C 3040.8,1386.39 3064.8,1361.19 3064.8,1326.39 z M 3073.2,1326.39 C 3073.2,1369.59 3049.2,1394.79 3007.2,1394.79 C 2965.2,1394.79 2932.8,1369.59 2932.8,1326.39 C 2932.8,1284.39 2965.2,1259.19 3007.2,1259.19 C 3049.2,1259.19 3073.2,1284.39 3073.2,1326.39" />
        <path
           id="path3171"
           style="fill:#a70000;fill-opacity:1;fill-rule:nonzero;stroke:none"
           d="M 3115.2,1386.39 L 3132,1386.39 C 3157.2,1386.39 3172.8,1377.99 3172.8,1361.19 C 3172.8,1343.19 3157.2,1334.79 3140.4,1334.79 L 3115.2,1334.79 L 3115.2,1386.39 z M 3106.8,1394.79 L 3106.8,1259.19 L 3115.2,1259.19 L 3115.2,1326.39 L 3132,1326.39 C 3148.8,1326.39 3157.2,1317.99 3172.8,1292.79 L 3189.6,1259.19 L 3206.4,1259.19 L 3172.8,1309.59 C 3164.4,1317.99 3164.4,1326.39 3157.2,1326.39 C 3172.8,1334.79 3181.2,1343.19 3181.2,1361.19 C 3181.2,1377.99 3172.8,1394.79 3140.4,1394.79 L 3106.8,1394.79" />
        <path
           id="path3173"
           style="fill:#a70000;fill-opacity:1;fill-rule:nonzero;stroke:none"
           d="M 3297.6,1317.99 L 3240,1317.99 L 3265.2,1377.99 L 3297.6,1317.99 z M 3272.4,1394.79 L 3265.2,1394.79 L 3198,1259.19 L 3214.8,1259.19 L 3231.6,1309.59 L 3297.6,1309.59 L 3322.8,1259.19 L 3331.2,1259.19 L 3272.4,1394.79" />
        <path
           id="path3175"
           style="fill:#a70000;fill-opacity:1;fill-rule:nonzero;stroke:none"
           d="M 3430.8,1386.39 L 3372,1386.39 L 3372,1259.19 L 3364.8,1259.19 L 3364.8,1386.39 L 3314.4,1386.39 L 3314.4,1394.79 L 3430.8,1394.79 L 3430.8,1386.39" />
        <path
           id="path3177"
           style="fill:#a70000;fill-opacity:1;fill-rule:nonzero;stroke:none"
           d="M 3555.6,1326.39 C 3555.6,1292.79 3530.4,1267.59 3496.8,1267.59 C 3464.4,1267.59 3430.8,1292.79 3430.8,1326.39 C 3430.8,1361.19 3464.4,1386.39 3496.8,1386.39 C 3530.4,1386.39 3555.6,1361.19 3555.6,1326.39 z M 3564,1326.39 C 3564,1369.59 3538.8,1394.79 3496.8,1394.79 C 3456,1394.79 3422.4,1369.59 3422.4,1326.39 C 3422.4,1284.39 3456,1259.19 3496.8,1259.19 C 3538.8,1259.19 3564,1284.39 3564,1326.39" />
        <path
           id="path3179"
           style="fill:#a70000;fill-opacity:1;fill-rule:nonzero;stroke:none"
           d="M 3588,1259.19 L 3604.8008,1259.19 L 3604.8008,1394.792 L 3588,1394.792 L 3588,1259.19 z" />
        <path
           id="path3181"
           style="fill:#a70000;fill-opacity:1;fill-rule:nonzero;stroke:none"
           d="M 3646.8,1386.39 L 3663.6,1386.39 C 3687.6,1386.39 3704.4,1377.99 3704.4,1361.19 C 3704.4,1343.19 3687.6,1334.79 3663.6,1334.79 L 3646.8,1334.79 L 3646.8,1386.39 z M 3630,1394.79 L 3630,1259.19 L 3646.8,1259.19 L 3646.8,1326.39 L 3663.6,1326.39 C 3680.4,1326.39 3680.4,1317.99 3696,1292.79 L 3721.2,1259.19 L 3738,1259.19 L 3704.4,1309.59 C 3696,1317.99 3696,1326.39 3687.6,1326.39 C 3704.4,1334.79 3712.8,1343.19 3712.8,1361.19 C 3712.8,1377.99 3704.4,1394.79 3672,1394.79 L 3630,1394.79" />
        <path
           id="path3183"
           style="fill:#a70000;fill-opacity:1;fill-rule:nonzero;stroke:none"
           d="M 3820.8,1386.39 L 3754.8,1386.39 L 3754.8,1334.79 L 3820.8,1334.79 L 3820.8,1326.39 L 3754.8,1326.39 L 3754.8,1267.59 L 3820.8,1267.59 L 3820.8,1259.19 L 3746.4,1259.19 L 3746.4,1394.79 L 3820.8,1394.79 L 3820.8,1386.39" />
        <path
           id="path3185"
           style="fill:#a70000;fill-opacity:1;fill-rule:nonzero;stroke:none"
           d="M 3912,1386.39 L 3945.6,1386.39 C 3987.6,1386.39 4011.6,1361.19 4011.6,1326.39 C 4011.6,1284.39 3979.2,1267.59 3945.6,1267.59 L 3912,1267.59 L 3912,1386.39 z M 3895.2,1394.79 L 3895.2,1259.19 L 3945.6,1259.19 C 4003.2,1259.19 4020,1292.79 4020,1326.39 C 4020,1361.19 4003.2,1394.79 3945.6,1394.79 L 3895.2,1394.79" />
        <path
           id="path3187"
           style="fill:#a70000;fill-opacity:1;fill-rule:nonzero;stroke:none"
           d="M 4062,1394.79 L 4062,1377.99 L 4053.6,1351.59 L 4045.2,1351.59 L 4045.2,1394.79 L 4062,1394.79" />
        <path
           id="path3189"
           style="fill:#a70000;fill-opacity:1;fill-rule:nonzero;stroke:none"
           d="M 4087.2,1259.19 L 4102.8016,1259.19 L 4102.8016,1394.792 L 4087.2,1394.792 L 4087.2,1259.19 z" />
        <path
           id="path3191"
           style="fill:#a70000;fill-opacity:1;fill-rule:nonzero;stroke:none"
           d="M 4252.8,1259.19 L 4244.4,1259.19 L 4144.8,1377.99 L 4144.8,1259.19 L 4128,1259.19 L 4128,1394.79 L 4136.4,1394.79 L 4244.4,1275.99 L 4244.4,1394.79 L 4252.8,1394.79 L 4252.8,1259.19" />
        <path
           id="path3193"
           style="fill:#a70000;fill-opacity:1;fill-rule:nonzero;stroke:none"
           d="M 4352.4,1386.39 L 4294.8,1386.39 L 4294.8,1334.79 L 4352.4,1334.79 L 4352.4,1326.39 L 4294.8,1326.39 L 4294.8,1259.19 L 4286.4,1259.19 L 4286.4,1394.79 L 4352.4,1394.79 L 4352.4,1386.39" />
        <path
           id="path3195"
           style="fill:#a70000;fill-opacity:1;fill-rule:nonzero;stroke:none"
           d="M 4502.4,1326.39 C 4502.4,1292.79 4468.8,1267.59 4435.2,1267.59 C 4402.8,1267.59 4377.6,1292.79 4377.6,1326.39 C 4377.6,1361.19 4402.8,1386.39 4435.2,1386.39 C 4468.8,1386.39 4502.4,1361.19 4502.4,1326.39 z M 4509.6,1326.39 C 4509.6,1369.59 4477.2,1394.79 4435.2,1394.79 C 4394.4,1394.79 4369.2,1369.59 4369.2,1326.39 C 4369.2,1284.39 4394.4,1259.19 4435.2,1259.19 C 4477.2,1259.19 4509.6,1284.39 4509.6,1326.39" />
        <path
           id="path3197"
           style="fill:#a70000;fill-opacity:1;fill-rule:nonzero;stroke:none"
           d="M 4543.2,1386.39 L 4568.4,1386.39 C 4593.6,1386.39 4602,1377.99 4602,1361.19 C 4602,1343.19 4593.6,1334.79 4568.4,1334.79 L 4543.2,1334.79 L 4543.2,1386.39 z M 4534.8,1394.79 L 4534.8,1259.19 L 4543.2,1259.19 L 4543.2,1326.39 L 4560,1326.39 C 4576.8,1326.39 4585.2,1317.99 4602,1292.79 L 4626,1259.19 L 4634.4,1259.19 L 4610.4,1309.59 C 4602,1317.99 4593.6,1326.39 4585.2,1326.39 C 4610.4,1334.79 4617.6,1343.19 4617.6,1361.19 C 4617.6,1377.99 4602,1394.79 4568.4,1394.79 L 4534.8,1394.79" />
        <path
           id="path3199"
           style="fill:#a70000;fill-opacity:1;fill-rule:nonzero;stroke:none"
           d="M 4759.2,1394.79 L 4776,1394.79 L 4776,1259.19 L 4759.2,1259.19 L 4759.2,1377.99 L 4710,1317.99 L 4659.6,1377.99 L 4659.6,1259.19 L 4651.2,1259.19 L 4651.2,1394.79 L 4659.6,1394.79 L 4710,1334.79 L 4759.2,1394.79" />
        <path
           id="path3201"
           style="fill:#a70000;fill-opacity:1;fill-rule:nonzero;stroke:none"
           d="M 4884,1317.99 L 4825.2,1317.99 L 4850.4,1377.99 L 4884,1317.99 z M 4858.8,1394.79 L 4850.4,1394.79 L 4792.8,1259.19 L 4801.2,1259.19 L 4818,1309.59 L 4884,1309.59 L 4909.2,1259.19 L 4917.6,1259.19 L 4858.8,1394.79" />
        <path
           id="path3203"
           style="fill:#a70000;fill-opacity:1;fill-rule:nonzero;stroke:none"
           d="M 5017.2,1386.39 L 4966.8,1386.39 L 4966.8,1259.19 L 4950,1259.19 L 4950,1386.39 L 4900.8,1386.39 L 4900.8,1394.79 L 5017.2,1394.79 L 5017.2,1386.39" />
        <path
           id="path3205"
           style="fill:#a70000;fill-opacity:1;fill-rule:nonzero;stroke:none"
           d="M 5032.8,1259.19 L 5041.1984,1259.19 L 5041.1984,1394.792 L 5032.8,1394.792 L 5032.8,1259.19 z" />
        <path
           id="path3207"
           style="fill:#a70000;fill-opacity:1;fill-rule:nonzero;stroke:none"
           d="M 5199.6,1326.39 C 5199.6,1292.79 5174.4,1267.59 5140.8,1267.59 C 5100,1267.59 5074.8,1292.79 5074.8,1326.39 C 5074.8,1361.19 5108.4,1386.39 5140.8,1386.39 C 5174.4,1386.39 5199.6,1361.19 5199.6,1326.39 z M 5199.6,1242.39 L 5199.6,1242.39 C 5199.6,1242.39 5191.2,1242.39 5191.2,1242.39 C 5174.4,1242.39 5157.6,1250.79 5149.2,1259.19 C 5199.6,1267.59 5208,1301.19 5208,1326.39 C 5208,1369.59 5174.4,1394.79 5140.8,1394.79 C 5100,1394.79 5066.4,1369.59 5066.4,1326.39 C 5066.4,1292.79 5091.6,1259.19 5132.4,1259.19 C 5140.8,1242.39 5166,1232.79 5191.2,1224.39 L 5199.6,1242.39" />
        <path
           id="path3209"
           style="fill:#a70000;fill-opacity:1;fill-rule:nonzero;stroke:none"
           d="M 5340,1394.79 L 5340,1317.99 C 5340,1275.99 5316,1259.19 5282.4,1259.19 C 5257.2,1259.19 5233.2,1275.99 5233.2,1317.99 L 5233.2,1394.79 L 5240.4,1394.79 L 5240.4,1317.99 C 5240.4,1284.39 5257.2,1267.59 5282.4,1267.59 C 5307.6,1267.59 5332.8,1284.39 5332.8,1317.99 L 5332.8,1394.79 L 5340,1394.79" />
        <path
           id="path3211"
           style="fill:#a70000;fill-opacity:1;fill-rule:nonzero;stroke:none"
           d="M 5448,1386.39 L 5382,1386.39 L 5382,1334.79 L 5440.8,1334.79 L 5440.8,1326.39 L 5382,1326.39 L 5382,1267.59 L 5448,1267.59 L 5448,1259.19 L 5373.6,1259.19 L 5373.6,1394.79 L 5448,1394.79 L 5448,1386.39" />
        <path
           id="path3213"
           style="fill:#a70000;fill-opacity:1;fill-rule:nonzero;stroke:none"
           d="M 2617.2,1182.39 L 2658,1182.39 C 2691.6,1182.39 2716.8,1157.19 2716.8,1123.59 C 2716.8,1088.79 2691.6,1063.59 2658,1063.59 L 2617.2,1063.59 L 2617.2,1182.39 z M 2608.8,1190.79 L 2608.8,1055.19 L 2658,1055.19 C 2708.4,1055.19 2733.6,1088.79 2733.6,1123.59 C 2733.6,1157.19 2716.8,1190.79 2658,1190.79 L 2608.8,1190.79" />
        <path
           id="path3215"
           style="fill:#a70000;fill-opacity:1;fill-rule:nonzero;stroke:none"
           d="M 2833.2,1182.39 L 2766,1182.39 L 2766,1131.99 L 2824.8,1131.99 L 2824.8,1123.59 L 2766,1123.59 L 2766,1063.59 L 2833.2,1063.59 L 2833.2,1055.19 L 2757.6,1055.19 L 2757.6,1190.79 L 2833.2,1190.79 L 2833.2,1182.39" />
        <path
           id="path3217"
           style="fill:#a70000;fill-opacity:1;fill-rule:nonzero;stroke:none"
           d="M 3032.4,1055.19 L 3024,1055.19 L 2916,1173.99 L 2916,1055.19 L 2907.6,1055.19 L 2907.6,1190.79 L 2916,1190.79 L 3024,1071.99 L 3024,1190.79 L 3032.4,1190.79 L 3032.4,1055.19" />
        <path
           id="path3219"
           style="fill:#a70000;fill-opacity:1;fill-rule:nonzero;stroke:none"
           d="M 3140.4,1113.99 L 3081.6,1113.99 L 3115.2,1173.99 L 3140.4,1113.99 z M 3115.2,1190.79 L 3106.8,1190.79 L 3049.2,1055.19 L 3057.6,1055.19 L 3081.6,1105.59 L 3148.8,1105.59 L 3164.4,1055.19 L 3172.8,1055.19 L 3115.2,1190.79" />
        <path
           id="path3221"
           style="fill:#a70000;fill-opacity:1;fill-rule:nonzero;stroke:none"
           d="M 3314.4,1055.19 L 3306,1055.19 L 3206.4,1173.99 L 3206.4,1055.19 L 3189.6,1055.19 L 3189.6,1190.79 L 3206.4,1190.79 L 3306,1071.99 L 3306,1190.79 L 3314.4,1190.79 L 3314.4,1055.19" />
        <path
           id="path3223"
           style="fill:#a70000;fill-opacity:1;fill-rule:nonzero;stroke:none"
           d="M 3447.6,1182.39 L 3397.2,1182.39 L 3397.2,1055.19 L 3380.4,1055.19 L 3380.4,1182.39 L 3331.2,1182.39 L 3331.2,1190.79 L 3447.6,1190.79 L 3447.6,1182.39" />
        <path
           id="path3225"
           style="fill:#a70000;fill-opacity:1;fill-rule:nonzero;stroke:none"
           d="M 3538.8,1182.39 L 3472.8,1182.39 L 3472.8,1131.99 L 3530.4,1131.99 L 3530.4,1123.59 L 3472.8,1123.59 L 3472.8,1063.59 L 3538.8,1063.59 L 3538.8,1055.19 L 3464.4,1055.19 L 3464.4,1190.79 L 3538.8,1190.79 L 3538.8,1182.39" />
        <path
           id="path3227"
           style="fill:#a70000;fill-opacity:1;fill-rule:nonzero;stroke:none"
           d="M 3621.6,1173.99 C 3604.8,1182.39 3596.4,1182.39 3588,1182.39 C 3572.4,1182.39 3564,1173.99 3564,1157.19 C 3564,1123.59 3630,1140.39 3630,1088.79 C 3630,1071.99 3613.2,1055.19 3588,1055.19 C 3579.6,1055.19 3564,1055.19 3555.6,1063.59 L 3555.6,1080.39 C 3572.4,1063.59 3579.6,1063.59 3588,1063.59 C 3604.8,1063.59 3613.2,1071.99 3613.2,1088.79 C 3613.2,1131.99 3555.6,1113.99 3555.6,1157.19 C 3555.6,1182.39 3572.4,1199.19 3588,1199.19 C 3596.4,1199.19 3613.2,1190.79 3621.6,1182.39 L 3621.6,1173.99" />
        <path
           id="path3229"
           style="fill:#a70000;fill-opacity:1;fill-rule:nonzero;stroke:none"
           d="M 3771.6,1113.99 L 3712.8,1113.99 L 3746.4,1173.99 L 3771.6,1113.99 z M 3746.4,1190.79 L 3738,1190.79 L 3680.4,1055.19 L 3687.6,1055.19 L 3712.8,1105.59 L 3780,1105.59 L 3795.6,1055.19 L 3812.4,1055.19 L 3746.4,1190.79" />
        <path
           id="path3231"
           style="fill:#a70000;fill-opacity:1;fill-rule:nonzero;stroke:none"
           d="M 3903.6,1182.39 L 3854.4,1182.39 L 3854.4,1055.19 L 3846,1055.19 L 3846,1182.39 L 3795.6,1182.39 L 3795.6,1190.79 L 3903.6,1190.79 L 3903.6,1182.39" />
        <path
           id="path3233"
           style="fill:#a70000;fill-opacity:1;fill-rule:nonzero;stroke:none"
           d="M 3928.8,1063.59 L 3994.8,1063.59 L 3994.8,1055.19 L 3920.4,1055.19 L 3920.4,1190.79 L 3928.8,1190.79 L 3928.8,1063.59" />
        <path
           id="path3235"
           style="fill:#a70000;fill-opacity:1;fill-rule:nonzero;stroke:none"
           d="M 4095.6,1113.99 L 4036.8,1113.99 L 4062,1173.99 L 4095.6,1113.99 z M 4070.4,1190.79 L 4062,1190.79 L 3994.8,1055.19 L 4011.6,1055.19 L 4028.4,1105.59 L 4095.6,1105.59 L 4119.6,1055.19 L 4128,1055.19 L 4070.4,1190.79" />
        <path
           id="path3237"
           style="fill:#a70000;fill-opacity:1;fill-rule:nonzero;stroke:none"
           d="M 4269.6,1055.19 L 4261.2,1055.19 L 4153.2,1173.99 L 4153.2,1055.19 L 4144.8,1055.19 L 4144.8,1190.79 L 4153.2,1190.79 L 4261.2,1071.99 L 4261.2,1190.79 L 4269.6,1190.79 L 4269.6,1055.19" />
        <path
           id="path3239"
           style="fill:#a70000;fill-opacity:1;fill-rule:nonzero;stroke:none"
           d="M 4394.4,1182.39 L 4344,1182.39 L 4344,1055.19 L 4335.6,1055.19 L 4335.6,1182.39 L 4286.4,1182.39 L 4286.4,1190.79 L 4394.4,1190.79 L 4394.4,1182.39" />
        <path
           id="path3241"
           style="fill:#a70000;fill-opacity:1;fill-rule:nonzero;stroke:none"
           d="M 4410,1055.19 L 4426.8008,1055.19 L 4426.8008,1190.792 L 4410,1190.792 L 4410,1055.19 z" />
        <path
           id="path3243"
           style="fill:#a70000;fill-opacity:1;fill-rule:nonzero;stroke:none"
           d="M 4585.2,1123.59 C 4585.2,1088.79 4551.6,1063.59 4518,1063.59 C 4485.6,1063.59 4460.4,1088.79 4460.4,1123.59 C 4460.4,1157.19 4485.6,1182.39 4518,1182.39 C 4551.6,1182.39 4585.2,1157.19 4585.2,1123.59 z M 4585.2,1038.39 L 4585.2,1038.39 C 4576.8,1038.39 4576.8,1038.39 4568.4,1038.39 C 4560,1038.39 4543.2,1046.79 4526.4,1055.19 C 4576.8,1063.59 4593.6,1097.19 4593.6,1123.59 C 4593.6,1165.59 4560,1199.19 4518,1199.19 C 4477.2,1199.19 4452,1165.59 4452,1123.59 C 4452,1088.79 4477.2,1055.19 4509.6,1055.19 C 4526.4,1038.39 4543.2,1029.99 4576.8,1029.99 L 4585.2,1038.39" />
        <path
           id="path3245"
           style="fill:#a70000;fill-opacity:1;fill-rule:nonzero;stroke:none"
           d="M 4725.6,1190.79 L 4725.6,1113.99 C 4725.6,1071.99 4693.2,1055.19 4668,1055.19 C 4634.4,1055.19 4610.4,1071.99 4610.4,1113.99 L 4610.4,1190.79 L 4626,1190.79 L 4626,1113.99 C 4626,1080.39 4642.8,1063.59 4668,1063.59 C 4693.2,1063.59 4717.2,1080.39 4717.2,1113.99 L 4717.2,1190.79 L 4725.6,1190.79" />
        <path
           id="path3247"
           style="fill:#a70000;fill-opacity:1;fill-rule:nonzero;stroke:none"
           d="M 4825.2,1182.39 L 4767.6,1182.39 L 4767.6,1131.99 L 4825.2,1131.99 L 4825.2,1123.59 L 4767.6,1123.59 L 4767.6,1063.59 L 4825.2,1063.59 L 4825.2,1055.19 L 4750.8,1055.19 L 4750.8,1190.79 L 4825.2,1190.79 L 4825.2,1182.39" />
        <path
           id="path3249"
           style="fill:#000000;fill-opacity:1;fill-rule:nonzero;stroke:none"
           d="M 566.398,715.586 L 632.398,715.586 L 632.398,1699.586 L 566.398,1699.586 L 566.398,715.586 z" />
        <path
           id="path3251"
           style="fill:#000000;fill-opacity:1;fill-rule:nonzero;stroke:none"
           d="M 906,715.586 L 840,715.586 L 840,1369.59 L 906,1369.59 L 906,715.586 z M 906,1590.39 L 840,1590.39 L 840,1699.59 L 906,1699.59 L 906,1590.39" />
        <path
           id="path3253"
           style="fill:#000000;fill-opacity:1;fill-rule:nonzero;stroke:none"
           d="M 1180.8,1259.19 L 1180.8,1259.19 C 1238.4,1343.19 1296,1377.99 1388.4,1377.99 C 1528.8,1377.99 1628.4,1292.79 1628.4,1113.99 L 1628.4,715.586 L 1554,715.586 L 1554,1088.79 C 1554,1232.79 1496.4,1309.59 1388.4,1309.59 C 1296,1309.59 1238.4,1267.59 1180.8,1173.99 L 1180.8,715.586 L 1113.6,715.586 L 1113.6,1369.59 L 1180.8,1369.59 L 1180.8,1259.19" />
        <path
           id="path3255"
           style="fill:#a70000;fill-opacity:1;fill-rule:nonzero;stroke:none"
           d="M 2060.4,1207.59 C 2060.4,1292.79 2019.6,1343.19 1918.8,1343.19 C 1861.2,1343.19 1819.2,1317.99 1761.6,1284.39 L 1761.6,1029.99 C 1827.6,1097.19 1944,1123.59 2060.4,1123.59 L 2060.4,1207.59 z M 1935.6,1394.79 C 2011.2,1394.79 2126.4,1361.19 2126.4,1224.39 L 2126.4,1123.59 L 2558.4,1123.59 L 2558.4,1394.79 C 2558.4,1394.79 1869.6,1394.79 1935.6,1394.79 z M 2126.4,825.988 C 2126.4,800.789 2134.8,792.387 2143.2,792.387 C 2160,792.387 2202,817.586 2234.4,851.188 L 2234.4,792.387 L 2227.2,783.988 C 2160,732.387 2134.8,723.988 2110.8,723.988 C 2077.2,723.988 2068.8,740.789 2060.4,800.789 C 1994.4,749.188 1927.2,723.988 1861.2,723.988 C 1819.2,723.988 1786.8,732.387 1761.6,757.586 L 1761.6,579.988 L 2558.4,579.988 L 2558.4,1071.99 L 2126.4,1071.99 L 2126.4,825.988 z M 1761.6,884.789 C 1761.6,825.988 1812,783.988 1886.4,783.988 C 1944,783.988 1994.4,800.789 2060.4,867.988 L 2060.4,1063.59 C 1894.8,1071.99 1761.6,1004.79 1761.6,884.789" />
      </g>
    </g>
  </g>
</svg>
