<?xml version="1.0" encoding="UTF-8" standalone="no"?>
<!-- Created with Inkscape (http://www.inkscape.org/) -->
<svg
   xmlns:dc="http://purl.org/dc/elements/1.1/"
   xmlns:cc="http://creativecommons.org/ns#"
   xmlns:rdf="http://www.w3.org/1999/02/22-rdf-syntax-ns#"
   xmlns:svg="http://www.w3.org/2000/svg"
   xmlns="http://www.w3.org/2000/svg"
   xmlns:sodipodi="http://sodipodi.sourceforge.net/DTD/sodipodi-0.dtd"
   xmlns:inkscape="http://www.inkscape.org/namespaces/inkscape"
   width="682.9068"
   height="283.08722"
   id="svg2"
   sodipodi:version="0.32"
   inkscape:version="0.46"
   sodipodi:docname="UnivNantes.svg"
   inkscape:output_extension="org.inkscape.output.svg.inkscape"
   version="1.0">
  <defs
     id="defs4">
    <inkscape:perspective
       sodipodi:type="inkscape:persp3d"
       inkscape:vp_x="0 : 526.18109 : 1"
       inkscape:vp_y="0 : 1000 : 0"
       inkscape:vp_z="744.09448 : 526.18109 : 1"
       inkscape:persp3d-origin="372.04724 : 350.78739 : 1"
       id="perspective10" />
    <inkscape:perspective
       id="perspective2464"
       inkscape:persp3d-origin="372.04724 : 350.78739 : 1"
       inkscape:vp_z="744.09448 : 526.18109 : 1"
       inkscape:vp_y="0 : 1000 : 0"
       inkscape:vp_x="0 : 526.18109 : 1"
       sodipodi:type="inkscape:persp3d" />
    <inkscape:perspective
       id="perspective2557"
       inkscape:persp3d-origin="372.04724 : 350.78739 : 1"
       inkscape:vp_z="744.09448 : 526.18109 : 1"
       inkscape:vp_y="0 : 1000 : 0"
       inkscape:vp_x="0 : 526.18109 : 1"
       sodipodi:type="inkscape:persp3d" />
    <inkscape:perspective
       id="perspective2607"
       inkscape:persp3d-origin="372.04724 : 350.78739 : 1"
       inkscape:vp_z="744.09448 : 526.18109 : 1"
       inkscape:vp_y="0 : 1000 : 0"
       inkscape:vp_x="0 : 526.18109 : 1"
       sodipodi:type="inkscape:persp3d" />
    <inkscape:perspective
       id="perspective2675"
       inkscape:persp3d-origin="372.04724 : 350.78739 : 1"
       inkscape:vp_z="744.09448 : 526.18109 : 1"
       inkscape:vp_y="0 : 1000 : 0"
       inkscape:vp_x="0 : 526.18109 : 1"
       sodipodi:type="inkscape:persp3d" />
  </defs>
  <sodipodi:namedview
     id="base"
     pagecolor="#ffffff"
     bordercolor="#666666"
     borderopacity="1.0"
     inkscape:pageopacity="0.0"
     inkscape:pageshadow="2"
     inkscape:zoom="0.49497475"
     inkscape:cx="787.36734"
     inkscape:cy="300.1727"
     inkscape:document-units="px"
     inkscape:current-layer="layer1"
     showgrid="false"
     inkscape:window-width="1280"
     inkscape:window-height="968"
     inkscape:window-x="-4"
     inkscape:window-y="-4" />
  <metadata
     id="metadata7">
    <rdf:RDF>
      <cc:Work
         rdf:about="">
        <dc:format>image/svg+xml</dc:format>
        <dc:type
           rdf:resource="http://purl.org/dc/dcmitype/StillImage" />
      </cc:Work>
    </rdf:RDF>
  </metadata>
  <g
     inkscape:label="Calque 1"
     inkscape:groupmode="layer"
     id="layer1"
     transform="translate(-29.00576,-331.39758)">
    <g
       id="g2721"
       transform="translate(-113.13709,-557.60421)"
       inkscape:export-xdpi="90"
       inkscape:export-ydpi="90">
      <path
         style="fill:#d9cb28"
         d="M 651.89285,1156.1387 C 653.68035,1155.9169 656.60535,1155.9169 658.39285,1156.1387 C 660.18035,1156.3605 658.71785,1156.5421 655.14285,1156.5421 C 651.56785,1156.5421 650.10535,1156.3605 651.89285,1156.1387 z M 586.14285,1071.8621 C 569.47618,1071.5476 559.64285,1070.9911 559.64285,1070.3621 C 559.64285,1069.8121 560.76785,1069.2197 562.14285,1069.0456 C 569.05418,1068.1706 572.16659,1066.7208 573.88617,1063.5754 C 575.48235,1060.6557 575.67237,1055.7939 575.96591,1010.3621 C 576.30436,957.98009 575.68825,945.29966 572.11829,931.17314 C 567.58193,913.22246 559.7002,902.92583 545.20074,896.0082 C 538.26741,892.70034 536.96241,892.42921 526.11222,892.04237 C 509.96422,891.46663 499.0058,894.16099 487.87871,901.44291 C 483.23883,904.47939 483.01874,904.54272 485.94514,901.99929 C 497.24997,892.17389 520.45364,886.92285 539.96149,889.77527 C 574.22953,894.78592 592.26538,915.32665 596.10667,953.71807 C 596.67657,959.41385 597.14285,985.1908 597.14285,1011.0002 C 597.14285,1061.6146 597.26839,1062.9326 602.41027,1066.3017 C 603.74922,1067.179 607.46218,1068.2265 610.66129,1068.6295 C 616.60028,1069.3775 619.06303,1071.3128 614.93466,1071.9876 C 613.67416,1072.1936 600.71785,1072.1371 586.14285,1071.8621 z"
         id="path2725" />
      <path
         style="fill:#023668"
         d="M 149.74695,1169.654 C 142.93462,1165.6464 142.14285,1162.8844 142.14285,1143.1277 L 142.14285,1125.8621 L 145.64285,1125.8621 L 149.14285,1125.8621 L 149.14285,1142.7273 C 149.14285,1158.0334 149.32627,1159.8256 151.12704,1162.1149 C 152.21834,1163.5023 154.23955,1164.9206 155.61862,1165.2667 C 159.20599,1166.1671 164.9578,1163.479 166.14921,1160.3454 C 166.69572,1158.908 167.14285,1150.5612 167.14285,1141.797 L 167.14285,1125.8621 L 170.70598,1125.8621 L 174.2691,1125.8621 L 173.95598,1143.7923 C 173.61474,1163.3321 173.31615,1164.4038 166.87254,1169.2146 C 162.75747,1172.287 154.57934,1172.4968 149.74695,1169.654 z M 184.59092,1170.5874 C 184.32188,1169.8863 184.22351,1159.6488 184.37231,1147.8374 L 184.64285,1126.3621 L 187.75506,1126.059 C 190.76454,1125.766 191.19366,1126.2695 200.75506,1141.3151 L 210.64285,1156.8742 L 210.91824,1141.3682 L 211.19364,1125.8621 L 214.66824,1125.8621 L 218.14285,1125.8621 L 218.14285,1148.8621 L 218.14285,1171.8621 L 215.11798,1171.8621 C 212.32852,1171.8621 211.4023,1170.792 203.21664,1158.1121 C 189.95235,1137.5652 191.23923,1137.7792 191.18739,1156.1121 L 191.14285,1171.8621 L 188.11147,1171.8621 C 186.4442,1171.8621 184.85996,1171.2885 184.59092,1170.5874 z M 229.59092,1170.5874 C 229.32188,1169.8863 229.22351,1159.6488 229.37231,1147.8374 L 229.64285,1126.3621 L 232.89285,1126.0488 L 236.14285,1125.7354 L 236.14285,1148.7988 L 236.14285,1171.8621 L 233.11147,1171.8621 C 231.4442,1171.8621 229.85996,1171.2885 229.59092,1170.5874 z M 256.65644,1170.6791 C 255.66042,1167.9178 242.14285,1126.3587 242.14285,1126.0577 C 242.14285,1125.8837 243.81334,1125.881 245.85506,1126.0518 L 249.56727,1126.3621 L 254.13935,1140.8621 C 256.65399,1148.8371 258.95172,1156.0168 259.24542,1156.8169 C 259.53911,1157.6171 261.01114,1154.2421 262.5166,1149.3169 C 269.59971,1126.1443 269.48816,1126.3926 272.96986,1126.0488 C 275.19735,1125.8288 276.14285,1126.1605 276.14285,1127.1618 C 276.14285,1127.9464 273.06279,1138.2124 269.29828,1149.9752 C 262.77361,1170.3626 262.32935,1171.3769 259.7926,1171.6791 C 258.25196,1171.8626 256.93146,1171.4415 256.65644,1170.6791 z M 283.14285,1148.8621 L 283.14285,1125.8621 L 297.14285,1125.8621 L 311.14285,1125.8621 L 311.14285,1129.3621 L 311.14285,1132.8621 L 300.64285,1132.8621 L 290.14285,1132.8621 L 290.14285,1139.3621 L 290.14285,1145.8621 L 299.14285,1145.8621 L 308.14285,1145.8621 L 308.14285,1148.8621 L 308.14285,1151.8621 L 299.14285,1151.8621 L 290.14285,1151.8621 L 290.14285,1158.3621 L 290.14285,1164.8621 L 300.64285,1164.8621 L 311.14285,1164.8621 L 311.14285,1168.3621 L 311.14285,1171.8621 L 297.14285,1171.8621 L 283.14285,1171.8621 L 283.14285,1148.8621 z M 320.80952,1171.1954 C 320.44285,1170.8288 320.14285,1160.4788 320.14285,1148.1954 L 320.14285,1125.8621 L 329.89285,1125.9186 C 341.69765,1125.9869 345.83297,1127.2606 348.85822,1131.76 C 352.93213,1137.819 350.82443,1148.5589 345.21185,1150.3402 C 344.0739,1150.7014 343.14285,1151.4256 343.14285,1151.9495 C 343.14285,1152.4734 345.16785,1156.9341 347.64285,1161.8621 C 350.11785,1166.7901 352.14285,1171.0833 352.14285,1171.4025 C 352.14285,1171.7217 350.45535,1171.8432 348.39285,1171.6725 C 344.73105,1171.3694 344.53701,1171.1448 340.14285,1162.1217 L 335.64285,1152.8812 L 331.39285,1152.8717 L 327.14285,1152.8621 L 327.14285,1162.3621 L 327.14285,1171.8621 L 324.30952,1171.8621 C 322.75118,1171.8621 321.17618,1171.5621 320.80952,1171.1954 z M 342.08625,1144.4133 C 344.5303,1142.2015 344.7464,1138.1688 342.58615,1135.0846 C 341.23165,1133.1508 340.12753,1132.8621 334.08615,1132.8621 L 327.14285,1132.8621 L 327.14285,1139.9786 L 327.14285,1147.0951 L 333.58625,1146.6848 C 338.02717,1146.4021 340.6688,1145.6961 342.08625,1144.4133 z M 364.64285,1170.7704 C 362.99285,1170.2691 360.51785,1168.9796 359.14285,1167.9048 L 356.64285,1165.9506 L 358.88869,1163.6883 C 361.01633,1161.5451 361.27949,1161.5096 363.88869,1163.015 C 373.3893,1168.4963 385.28548,1163.6027 381.16708,1155.9074 C 379.87964,1153.5018 376.33972,1151.873 372.32775,1151.8402 C 367.8856,1151.8038 361.41664,1148.2922 359.70917,1144.9904 C 354.91102,1135.7118 362.04398,1125.8621 373.56152,1125.8621 C 378.28609,1125.8621 387.14285,1129.0799 387.14285,1130.7963 C 387.14285,1131.212 386.25624,1132.3545 385.1726,1133.3352 C 383.32822,1135.0043 382.98319,1135.0142 379.77147,1133.4902 C 374.78126,1131.1222 370.50133,1131.4127 367.5974,1134.3167 C 362.49571,1139.4183 365.05396,1143.4588 374.66079,1145.4726 C 383.11561,1147.2449 385.86052,1148.9422 387.80734,1153.6016 C 390.53029,1160.1185 387.27016,1167.6575 380.50707,1170.4833 C 376.8253,1172.0216 369.21494,1172.1593 364.64285,1170.7704 z M 397.59092,1170.5874 C 397.32188,1169.8863 397.22351,1159.6488 397.37231,1147.8374 L 397.64285,1126.3621 L 400.89285,1126.0488 L 404.14285,1125.7354 L 404.14285,1148.7988 L 404.14285,1171.8621 L 401.11147,1171.8621 C 399.4442,1171.8621 397.85996,1171.2885 397.59092,1170.5874 z M 424.85543,1171.2414 C 424.46351,1170.8494 424.14285,1162.0538 424.14285,1151.6954 L 424.14285,1132.8621 L 418.14285,1132.8621 L 412.14285,1132.8621 L 412.14285,1129.3621 L 412.14285,1125.8621 L 427.64285,1125.8621 L 443.14285,1125.8621 L 443.14285,1129.3621 L 443.14285,1132.8621 L 437.16444,1132.8621 L 431.18604,1132.8621 L 430.91444,1152.1121 L 430.64285,1171.3621 L 428.10543,1171.658 C 426.70984,1171.8208 425.24734,1171.6333 424.85543,1171.2414 z M 450.6018,1170.6157 C 450.32678,1169.899 450.22351,1159.6488 450.37231,1147.8374 L 450.64285,1126.3621 L 464.89285,1126.0847 L 479.14285,1125.8072 L 479.14285,1129.3347 L 479.14285,1132.8621 L 468.09513,1132.8621 L 457.04742,1132.8621 L 457.34513,1139.1121 L 457.64285,1145.3621 L 466.89285,1145.6497 L 476.14285,1145.9372 L 476.14285,1148.8997 L 476.14285,1151.8621 L 466.64285,1151.8621 L 457.14285,1151.8621 L 457.14285,1158.3621 L 457.14285,1164.8621 L 468.20621,1164.8621 L 479.26957,1164.8621 L 478.95621,1168.1121 L 478.64285,1171.3621 L 464.87235,1171.6405 C 454.27663,1171.8546 450.98656,1171.6184 450.6018,1170.6157 z M 503.14285,1148.9755 L 503.14285,1125.8621 L 512.43096,1125.8621 C 520.07437,1125.8621 522.50917,1126.2605 526.18096,1128.1121 C 532.84948,1131.4749 534.1394,1134.8398 534.1413,1148.8777 C 534.14381,1167.5382 530.94461,1171.0598 513.40028,1171.7093 L 503.14285,1172.089 L 503.14285,1148.9755 z M 524.6883,1162.4076 C 526.99928,1160.0966 527.14285,1159.3043 527.14285,1148.8621 C 527.14285,1138.4199 526.99928,1137.6276 524.6883,1135.3167 C 522.6236,1133.252 521.2736,1132.8621 516.1883,1132.8621 L 510.14285,1132.8621 L 510.14285,1148.8621 L 510.14285,1164.8621 L 516.1883,1164.8621 C 521.2736,1164.8621 522.6236,1164.4723 524.6883,1162.4076 z M 544.6018,1170.6157 C 544.32678,1169.899 544.22351,1159.6488 544.37231,1147.8374 L 544.64285,1126.3621 L 558.64285,1126.3621 L 572.64285,1126.3621 L 572.64285,1129.3621 L 572.64285,1132.3621 L 561.89285,1132.646 L 551.14285,1132.9298 L 551.14285,1139.396 L 551.14285,1145.8621 L 560.14285,1145.8621 L 569.14285,1145.8621 L 569.14285,1148.8621 L 569.14285,1151.8621 L 560.14285,1151.8621 L 551.14285,1151.8621 L 551.14285,1158.3283 L 551.14285,1164.7945 L 561.89285,1165.0783 L 572.64285,1165.3621 L 572.64285,1168.3621 L 572.64285,1171.3621 L 558.87235,1171.6405 C 548.27663,1171.8546 544.98656,1171.6184 544.6018,1170.6157 z M 597.14285,1148.9255 L 597.14285,1125.8621 L 600.03617,1125.8621 C 602.67714,1125.8621 603.78915,1127.2097 612.78617,1141.3133 L 622.64285,1156.7645 L 622.91824,1141.3133 L 623.19364,1125.8621 L 626.68702,1125.8621 L 630.1804,1125.8621 L 629.91162,1148.6121 L 629.64285,1171.3621 L 626.6873,1171.3621 C 623.97223,1171.3621 622.95512,1170.1491 614.1873,1156.4547 L 604.64285,1141.5474 L 604.14285,1156.4547 L 603.64285,1171.3621 L 600.39285,1171.6755 L 597.14285,1171.9888 L 597.14285,1148.9255 z M 637.00016,1171.3861 C 636.46144,1170.8474 650.15363,1131.579 652.23855,1127.6833 C 653.77653,1124.8096 657.76728,1125.3628 658.9382,1128.6121 C 666.30134,1149.0447 674.14285,1171.181 674.14285,1171.5343 C 674.14285,1171.781 672.49013,1171.8432 670.47015,1171.6725 C 667.12961,1171.3902 666.66987,1170.9778 665.38682,1167.1121 L 663.97618,1162.8621 L 655.15441,1162.8621 L 646.33264,1162.8621 L 644.98774,1167.1121 C 643.83481,1170.7555 643.20952,1171.4046 640.60691,1171.6595 C 638.93714,1171.8231 637.3141,1171.7 637.00016,1171.3861 z M 661.14285,1155.5669 C 661.14285,1152.6474 655.33557,1137.4423 654.76283,1138.8621 C 653.42606,1142.1761 649.14285,1155.2659 649.14285,1156.0373 C 649.14285,1156.4909 651.84285,1156.8621 655.14285,1156.8621 C 659.38793,1156.8621 661.14285,1156.4833 661.14285,1155.5669 z M 680.80952,1171.1954 C 680.44285,1170.8288 680.14285,1160.4788 680.14285,1148.1954 L 680.14285,1125.8621 L 683.39285,1125.8742 C 686.49484,1125.8856 687.09828,1126.6029 696.64285,1141.6242 L 706.64285,1157.3621 L 706.91824,1141.6121 L 707.19364,1125.8621 L 710.68702,1125.8621 L 714.1804,1125.8621 L 713.91162,1148.6121 L 713.64285,1171.3621 L 710.64285,1171.3621 C 707.8937,1171.3621 706.8903,1170.217 698.64285,1157.6678 C 693.69285,1150.1359 689.10681,1143.1609 688.45166,1142.1678 C 687.50293,1140.7297 687.24849,1143.568 687.20166,1156.1121 L 687.14285,1171.8621 L 684.30952,1171.8621 C 682.75118,1171.8621 681.17618,1171.5621 680.80952,1171.1954 z M 733.80952,1171.1954 C 733.44285,1170.8288 733.14285,1162.0762 733.14285,1151.7454 L 733.14285,1132.9619 L 727.39285,1132.662 C 721.7081,1132.3655 721.63929,1132.3252 721.32949,1129.1121 L 721.01613,1125.8621 L 736.57949,1125.8621 L 752.14285,1125.8621 L 752.14285,1129.3621 L 752.14285,1132.8621 L 746.14285,1132.8621 L 740.14285,1132.8621 L 740.14285,1152.3621 L 740.14285,1171.8621 L 737.30952,1171.8621 C 735.75118,1171.8621 734.17618,1171.5621 733.80952,1171.1954 z M 760.14285,1148.8621 L 760.14285,1125.8621 L 774.14285,1125.8621 L 788.14285,1125.8621 L 788.14285,1129.3621 L 788.14285,1132.8621 L 777.64285,1132.8621 L 767.14285,1132.8621 L 767.14285,1139.3621 L 767.14285,1145.8621 L 776.14285,1145.8621 L 785.14285,1145.8621 L 785.14285,1148.8621 L 785.14285,1151.8621 L 776.14285,1151.8621 L 767.14285,1151.8621 L 767.14285,1158.3621 L 767.14285,1164.8621 L 777.64285,1164.8621 L 788.14285,1164.8621 L 788.14285,1168.3621 L 788.14285,1171.8621 L 774.14285,1171.8621 L 760.14285,1171.8621 L 760.14285,1148.8621 z M 799.51622,1169.9443 C 794.21258,1167.5359 793.4116,1166.1489 795.89194,1163.6686 C 797.82319,1161.7373 797.98651,1161.7305 801.2633,1163.4453 C 805.81306,1165.8262 813.44617,1165.8026 816.10161,1163.3994 C 818.51234,1161.2178 818.77365,1156.6358 816.6107,1154.4728 C 815.76802,1153.6301 813.40552,1152.6554 811.3607,1152.3068 C 803.04322,1150.8886 800.19757,1149.7159 797.60892,1146.6394 C 795.2662,1143.8553 794.98409,1142.7901 795.36691,1138.1738 C 795.63978,1134.8834 796.52808,1132.0815 797.72384,1130.7396 C 802.18988,1125.7278 811.45095,1124.4572 818.89285,1127.8352 C 823.62478,1129.9831 823.98514,1130.7899 821.29859,1133.2212 C 819.5919,1134.7657 819.16652,1134.77 815.59617,1133.2782 C 811.52133,1131.5756 806.03687,1131.8753 803.55362,1133.9362 C 802.7777,1134.5801 802.14285,1136.6165 802.14285,1138.4615 C 802.14285,1142.6388 804.51009,1144.3219 812.39637,1145.7521 C 815.5608,1146.326 819.04365,1147.2738 820.13602,1147.8585 C 824.79215,1150.3503 826.56979,1159.202 823.57653,1164.9904 C 820.35229,1171.2254 807.95737,1173.7774 799.51622,1169.9443 z M 461.14285,1121.3889 C 461.14285,1121.1286 462.13252,1118.8786 463.34212,1116.3889 C 465.3128,1112.3326 465.8964,1111.8621 468.95713,1111.8621 L 472.37287,1111.8621 L 470.59405,1114.6121 C 469.6157,1116.1246 468.1622,1118.3746 467.36403,1119.6121 C 466.1382,1121.5127 461.14285,1122.9394 461.14285,1121.3889 z M 422.64285,1072.2177 C 406.55946,1070.6546 390.95906,1064.275 382.22391,1055.6887 C 372.70244,1046.3295 367.78013,1036.9617 363.92424,1020.8621 C 362.04832,1013.0295 361.83957,1007.9649 361.26566,956.36212 C 360.60293,896.7729 360.70892,897.95402 355.74478,894.83952 C 354.58872,894.1142 350.94285,893.26007 347.64285,892.94144 C 343.23366,892.51572 341.64285,891.96442 341.64285,890.86212 C 341.64285,889.56713 345.50623,889.34495 369.91068,889.23646 C 395.67773,889.12193 400.80117,889.53714 398.76356,891.57474 C 398.4448,891.8935 395.83817,892.52513 392.97105,892.97836 C 386.42388,894.01333 384.44729,895.98384 383.16291,902.75632 C 381.81145,909.88254 381.82661,999.98401 383.18139,1012.6515 C 385.39182,1033.3194 390.46611,1046.8412 399.32936,1055.682 C 405.39889,1061.7362 415.9453,1067.3644 424.02934,1068.8633 C 440.75944,1071.9655 460.01119,1067.5463 473.64285,1057.4746 L 478.64285,1053.7804 L 474.14285,1057.8207 C 462.87589,1067.9368 441.13431,1074.0147 422.64285,1072.2177 z"
         id="path2723" />
    </g>
  </g>
</svg>
